<svg xmlns="http://www.w3.org/2000/svg" width="49" height="70" viewBox="0 0 49 70"><defs><clipPath id="jwnma"><path d="M0 .37h49v69.263H0z"/></clipPath></defs><g><g><g/><g clip-path="url(#jwnma)"><path fill="#e8261c" d="M48.967 11.972c.005 15.24-.056 30.479.033 45.717.036 6.166-4.865 11.152-10.057 11.827-.108.014-.21.077-.314.117H10.227c-.452-.116-.905-.231-1.357-.348C3.945 68.012-.052 63.25 0 57.848c.071-7.281.018-14.563.018-21.844 0-7.958.013-15.915-.001-23.873C.007 6.21 4.654 1.016 10.557.4c.358-.038.723-.029 1.085-.029 8.56-.001 17.12-.004 25.68 0 6.296.003 11.643 5.327 11.645 11.6zM46.05 57.986c.027-9.827.012-19.654.012-29.482 0-5.5.014-10.999-.01-16.498-.013-3.113-1.22-5.643-3.879-7.386-1.542-1.012-3.275-1.359-5.1-1.357-4.777.006-9.555-.005-14.332.004-3.962.007-7.928-.075-11.884.084-3.326.133-5.727 1.874-7.158 4.887-.624 1.313-.778 2.717-.778 4.146-.002 7.415 0 14.83 0 22.246h.002c0 7.777-.01 15.553.013 23.329.003.824.109 1.67.31 2.47.978 3.876 4.24 6.285 8.566 6.297 8.286.022 16.573.015 24.859-.006.989-.003 2.006-.05 2.96-.282 3.958-.968 6.407-4.184 6.42-8.452zM6.591 7.644h35.812v14.869H6.592zm2.922 11.947h29.949v-9.038H9.513zm10.175 19.514h9.605v9.249h-9.605zm2.951 6.31h3.72V42.03h-3.72zm-2.933-17.707h9.569v9.268h-9.57zm2.904 6.307h3.746v-3.398H22.61zm-2.913 16.452h9.59v9.257h-9.59zm2.943 6.345h3.714v-3.41H22.64zm10.203-17.714h9.54v9.271h-9.54zm2.925 6.322h3.705v-3.384h-3.705zM6.596 39.11h9.575v9.226H6.596zm2.91 6.286h3.701v-3.37h-3.7zm23.304 5.092h9.585v9.223H32.81zm2.971 6.345h3.686v-3.414H35.78zM32.834 27.73h9.591v9.226h-9.591zm2.94 6.305h3.689v-3.42h-3.688zM6.599 27.729h9.582v9.227H6.598zm2.92 6.299h3.7v-3.435h-3.7zM6.573 50.489h9.592v9.22H6.574zm2.955 6.32H13.2v-3.406H9.529z"/></g></g></g></svg>