<svg xmlns="http://www.w3.org/2000/svg" width="70" height="54" viewBox="0 0 70 54"><defs><clipPath id="5j5aa"><path d="M0 0h70v54H0z"/></clipPath></defs><g><g><g/><g clip-path="url(#5j5aa)"><path fill="#e8261c" d="M7.84 5.153c-.954-.025-1.607-.615-1.627-1.469-.01-.417.129-.784.402-1.062.298-.303.742-.472 1.251-.475 1.872-.014 3.82-.012 5.787.006.953.008 1.612.592 1.64 1.452.013.394-.126.762-.392 1.039-.304.316-.754.497-1.268.509-.682.015-1.375.012-2.045.008-.298-.001-.603 0-.896-.003-.286 0-.571.002-.856.004-.287.002-.578.003-.871.003-.375 0-.752-.003-1.126-.012zM52.891 32.01c.64 5.096-1.414 9.312-6.106 12.531-1.95 1.338-4.415 2.183-6.434 2.207-7.127-.003-13.205-4.944-14.141-11.491-.34-2.375-.026-4.691.959-7.08.42-1.017 1.19-1.438 2.063-1.129.393.14.682.399.837.75.19.433.16.961-.087 1.528-1.931 4.42-.475 9.796 3.388 12.507 3.386 2.377 8.246 2.518 11.817.344 3.581-2.18 5.346-6.277 4.606-10.693-.677-4.036-3.795-7.218-7.942-8.104-2.334-.5-4.574-.259-6.657.714l-.158.075c-.138.065-.275.131-.417.19-.888.367-1.716.117-2.108-.636-.408-.784-.11-1.609.742-2.053 2.54-1.322 5.109-1.815 7.633-1.463 6.606.922 11.206 5.444 12.005 11.803zM10.75 15.658c1.328 0 2.337.994 2.348 2.314a2.294 2.294 0 0 1-.692 1.663 2.318 2.318 0 0 1-1.638.677h-.018c-1.304-.01-2.368-1.056-2.373-2.332a2.271 2.271 0 0 1 .68-1.632 2.387 2.387 0 0 1 1.687-.69zm59.236 21.087c0 .707 0 1.414.002 2.122.003 1.585.006 3.225-.005 4.838-.02 2.955-2.225 5.114-5.242 5.132-.61.004-1.22.005-1.832.005l-1.49-.001-1.531-.002h-.214V45.9l.196-.017c.074-.006.15-.014.226-.022.176-.019.357-.038.543-.038a320.79 320.79 0 0 1 1.853 0c.811 0 1.622.002 2.433-.004 1.49-.012 1.994-.515 1.999-1.993.008-2.65.006-5.345.004-7.951l-.003-22.083.002-.184c.002-.175.004-.34-.01-.504-.09-1.136-.594-1.602-1.739-1.609a330.781 330.781 0 0 0-7.11.008c-.842 0-1.48-.273-2.062-.882a460.087 460.087 0 0 0-6.944-7.093c-.27-.27-.723-.474-1.057-.476-5.408-.035-10.876-.034-16.253.002-.327.002-.785.21-1.064.483a444.029 444.029 0 0 0-7.027 7.014c-.645.66-1.338.955-2.243.955h-.024c-3.987-.023-8.041-.02-11.963-.018-1.43.002-2.86.002-4.292.002-.837 0-1.343.132-1.641.429-.3.297-.433.8-.433 1.632l-.001 29.947c0 1.031.129 1.578.446 1.887.317.31.878.436 1.933.436h13.965v.21c0 .219.004.428.008.632.012.521.022 1.013-.044 1.498-.046.332-.61.65-.924.656-1.8.028-3.63.025-5.4.022l-1.57-.002h-1.95c-1.464.002-2.928.003-4.392-.003-2.92-.012-5.124-2.188-5.127-5.06C0 33.293-.003 23.1.003 13.471c.002-2.803 2.234-5 5.082-5.001l1.828-.002c4.407-.004 8.964-.007 13.447.024h.028c.756 0 1.27-.21 1.769-.723 1.278-1.314 2.597-2.632 3.871-3.906A509.373 509.373 0 0 0 29.093.782C29.625.242 30.203 0 30.965 0h.01c2.334.007 4.667.008 7 .008 3.62.001 7.362.002 11.043.028.54.004 1.222.297 1.621.696 1.245 1.246 2.49 2.53 3.694 3.774 1.1 1.136 2.239 2.311 3.373 3.452.263.265.76.474 1.153.486l.603.019c1.762.055 3.584.113 5.356-.017 1.167-.086 2.476.424 3.495 1.363 1.081.996 1.696 2.339 1.687 3.684-.038 5.556-.03 11.205-.021 16.669.003 2.194.006 4.388.007 6.583zm-15.92-17.936c3.967 3.826 6.274 8.996 6.33 14.183.058 5.57-2.109 10.845-6.102 14.856-3.905 3.923-9.052 6.107-14.494 6.151l-.172.001c-5.448 0-10.63-2.108-14.613-5.948-4.024-3.88-6.265-8.992-6.31-14.394-.094-11.352 9.247-20.678 20.823-20.79 5.281-.05 10.57 2.115 14.538 5.941zm-1.923 27.158c3.33-3.252 5.174-7.686 5.19-12.485.015-4.775-1.796-9.211-5.101-12.49-3.305-3.279-7.793-5.091-12.636-5.104h-.052c-4.807 0-9.279 1.782-12.597 5.022-3.33 3.25-5.17 7.65-5.183 12.389-.013 4.802 1.79 9.261 5.077 12.555 3.286 3.294 7.75 5.116 12.568 5.132h.066c4.856 0 9.353-1.781 12.668-5.019z"/></g></g></g></svg>