<svg xmlns="http://www.w3.org/2000/svg" width="66" height="66" viewBox="0 0 66 66"><defs><clipPath id="fu6sa"><path d="M0 0h66v66H0z"/></clipPath></defs><g><g><g/><g clip-path="url(#fu6sa)"><path fill="#e8261c" d="M64.233 48.131c.5 1.328 1.016 2.701 1.532 4.048.208.545.401 1.346-.322 2.022-.711.664-1.51.415-2.049.17l-3.524-1.594c-1.868-.844-3.8-1.717-5.697-2.585-.252-.115-.405-.104-.715.052-1.266.638-2.232 1.574-3.229 3.129-4.243 6.612-10.302 10.696-18.011 12.14A27.858 27.858 0 0 1 27.08 66c-5.04 0-9.87-1.442-14.412-4.312-.402-.254-.661-.275-1.067-.087-1.913.883-3.864 1.766-5.75 2.619-1.091.493-2.183.987-3.272 1.483-.566.258-1.235.454-1.911-.05-.653-.485-.808-1.201-.46-2.13.305-.808.604-1.62.902-2.43.757-2.055 1.54-4.18 2.397-6.236.501-1.202.447-2.09-.202-3.276C-.115 45.324-.912 38.08 1.06 31.183c1.97-6.89 6.472-12.629 12.676-16.158a3.285 3.285 0 0 0 1.271-1.262C19.405 6.261 26.041 1.733 34.731.302c.926-.153 1.852-.208 2.596-.252.28-.016.53-.031.739-.049L38.079 0h.014C44.73.053 50.856 2.175 55.81 6.135c4.935 3.944 8.245 9.338 9.572 15.6 1.424 6.716.385 13.176-3.087 19.2-.354.614-.394 1.079-.145 1.717a518.941 518.941 0 0 1 2.083 5.48zM19.817 12.363c10.566-2.557 19.58-.17 26.808 7.1 7.347 7.39 9.658 16.514 6.872 27.12l.183.04c.373.083.758.168 1.124.328 1.548.677 3.112 1.386 4.624 2.07a840.79 840.79 0 0 0 2.035.92l-.617-1.656c-.691-1.863-1.344-3.623-2.06-5.387-.421-1.04-.337-1.895.281-2.859 2.195-3.421 3.414-7.188 3.623-11.196.357-6.822-1.721-12.745-6.176-17.605-5.575-6.083-12.605-8.7-20.894-7.78-4.532.502-8.691 2.307-12.36 5.363a22.5 22.5 0 0 0-3.443 3.542zM4.515 61.258c.06-.025.116-.05.172-.075.598-.27 1.196-.536 1.795-.802 1.524-.678 3.1-1.38 4.625-2.113.405-.195.78-.293 1.146-.293.48 0 .947.168 1.448.51 5.605 3.825 11.797 5.089 18.405 3.756 12.92-2.606 21.38-15.228 18.86-28.137-1.234-6.313-4.856-11.78-10.201-15.39-5.344-3.612-11.753-4.925-18.045-3.696-4.007.782-7.607 2.476-10.701 5.037a24.353 24.353 0 0 0-6.76 9.007c-3.202 7.356-2.62 15.457 1.598 22.229.52.833.955 1.85.249 3.074-.024.041-.044.102-.064.165-.013.042-.027.083-.042.124z"/></g></g></g></svg>