<svg xmlns="http://www.w3.org/2000/svg" width="64" height="70" viewBox="0 0 64 70"><g><g><path fill="#ec1d24" d="M63.247 36.432c1.025 1.044 1 2.698-.055 3.765a1816.76 1816.76 0 0 1-9.39 9.444c-.38.379-.52.717-.517 1.247.025 4.035.023 8.136.021 12.102v3.025c0 2.42-1.55 3.985-3.948 3.985H3.96C1.555 70 0 68.443 0 66.034V4.179C0 2.04.785.91 2.798.157l.017-.018a1.03 1.03 0 0 1 .066-.066L2.963 0H31.75l.084.078c.477.444.956.886 1.435 1.328 1.023.944 2.08 1.921 3.107 2.899 2.327 2.215 4.65 4.433 6.974 6.652 3.018 2.88 6.138 5.859 9.213 8.781.52.494.75 1.038.748 1.762-.013 3.193-.012 6.44-.01 9.58l.001 3.504.015-.015.85-.851.442-.446c.281-.285.563-.57.848-.85 1.132-1.108 2.709-1.098 3.837.026a475.92 475.92 0 0 1 3.953 3.984zm-27.1 19.524c.218.059.462.13.697.226.492.2.812.113 1.267-.348a4797.43 4797.43 0 0 1 16.52-16.648c.156-.156.34-.26.537-.367l-1.01-.997zm1.163 5.207a.595.595 0 0 0 .09-.32c-.205-1.039-.307-1.509-.554-1.77-.255-.27-.747-.397-1.726-.648a1.374 1.374 0 0 1-.149-.048 1.049 1.049 0 0 0-.065-.024 1.284 1.284 0 0 0-.257.095c-.547 1.312-1.065 2.605-1.614 3.974l-.233.579.487-.195c1.323-.528 2.69-1.074 4.021-1.643zM32.825 8.934l-.001 10.406c0 .614.059.925.204 1.072.147.149.458.21 1.073.21a10510.929 10510.929 0 0 0 15.568-.008L32.825 4.54zm16.771 58.402c.93 0 1.07-.137 1.07-1.044.002-4.431.002-8.862 0-13.293 0-.051-.002-.103-.004-.157a5.397 5.397 0 0 0-.164.156l-2.59 2.608c-2.043 2.057-4.085 4.113-6.133 6.164-.31.31-.65.619-1.05.787a558.114 558.114 0 0 1-9.835 4.045c-.444.177-1.065-.086-1.352-.294-.258-.186-.636-.63-.275-1.521.418-1.031.832-2.064 1.245-3.097.772-1.928 1.569-3.921 2.389-5.868a6.643 6.643 0 0 1 1.363-2.025c3.286-3.335 6.639-6.713 9.881-9.98 2.068-2.083 4.136-4.166 6.2-6.253.177-.177.31-.423.31-.57.013-2.35.015-4.738.016-7.048 0-2.105.002-4.209.011-6.313.001-.265-.038-.344-.062-.368-.024-.024-.108-.058-.359-.064-3.66.014-7.38.014-10.98.014H34.015c-1.11 0-2.065-.37-2.762-1.07-.698-.702-1.068-1.667-1.069-2.792-.002-1.973-.001-3.946 0-5.919V2.714l-19.102-.003H8.11l-4.384.001c-.956.001-1.077.126-1.082 1.113v62.397c0 1 .117 1.114 1.14 1.114h45.811zm8.231-25.782l-.88-.96-.029.026c-.143.134-.268.25-.389.371l-5.81 5.85-2.85 2.869a4850.292 4850.292 0 0 0-8.037 8.103c-.3.304-.355.42-.36.461.071.478.21.976.334 1.416zm3.296-3.247l-3.832-3.901-1.261 1.259 3.836 3.863zm-50.293-8.91h33.823v2.573H10.83zm-.005 7.58H44.63v2.591H10.825zm-.017 9.786h26.277v2.567H10.808zm.002 6.505h18.734v2.58H10.81zm-.002-34.722h14.417v2.557H10.808z"/></g></g></svg>