<svg xmlns="http://www.w3.org/2000/svg" width="93" height="60" viewBox="0 0 93 60"><g><g><path fill="#e8261c" d="M93 25.61v.826c-.3.312-.556.687-.907.928-4.647 3.183-9.308 6.348-13.965 9.518-.102.07-.2.146-.342.25.825.798 1.646 1.551 2.422 2.346 2.865 2.934 1.736 7.8-2.136 9.254-1.234.464-2.488.491-3.792.145-.284 2.01-1.272 3.56-3.112 4.51-1.848.953-3.721.865-5.566-.045-.037.082-.057.114-.066.15a5.766 5.766 0 0 1-6.996 4.276c-.72-.177-1.158-.03-1.73.336-2.456 1.574-5.131 1.816-7.934 1.09a1.225 1.225 0 0 0-.548-.005c-1.092.238-2.167.602-3.272.723-3.928.432-7.289-.72-9.926-3.665-.26-.292-.5-.34-.85-.298-2.771.331-5.426-1.382-6.205-4.005-.122-.413-.194-.84-.295-1.287-1.818.39-3.49.084-4.967-1.026-1.489-1.119-2.218-2.636-2.3-4.467-2.593.28-4.69-.535-6.003-2.73-1.49-2.49-1.033-4.858.86-7.01-.08-.07-.143-.131-.211-.187-4.38-3.552-8.766-7.098-13.135-10.663C1.309 23.991.46 23.531 0 22.682v-.75c.125-.2.24-.406.377-.597C4.977 14.932 9.58 8.531 14.182 2.13c.528-.734 1.141-.862 2.001-.535 1.234.469 2.48.913 3.74 1.31 2.336.736 4.629.65 6.909-.316 1.413-.6 2.882-1.08 4.344-1.557 2.534-.827 5.13-1.24 7.807-.927a18.14 18.14 0 0 1 8.087 2.979c.25.167.425.16.682.018A18.156 18.156 0 0 1 55.42.845c2.647-.181 5.2.258 7.636 1.257 1.929.79 3.816 1.677 5.72 2.523 1.26.559 2.549.917 3.963.806a23.324 23.324 0 0 0 5.786-1.193c1.086-.373 1.613-.187 2.195.788L93 25.61M55.345 55.805c-.152-.104-.28-.17-.379-.265-1.369-1.333-2.733-2.67-4.098-4.006-.09-.089-.185-.175-.266-.271-.352-.423-.45-.898-.236-1.404.212-.501.611-.792 1.17-.844.496-.045.884.164 1.227.5 1.623 1.598 3.25 3.19 4.882 4.78.873.85 1.92 1.13 3.097.785 2.219-.65 2.883-3.349 1.225-4.984-2.639-2.603-5.295-5.189-7.944-7.782-.1-.097-.203-.192-.295-.296-.355-.405-.449-.87-.272-1.37.179-.505.566-.8 1.094-.89.522-.09.942.124 1.306.482 1.408 1.383 2.82 2.761 4.23 4.142 2.053 2.008 4.098 4.025 6.162 6.023 1.581 1.53 4.096 1.095 4.987-.843.54-1.174.274-2.44-.739-3.431-4.076-3.993-8.155-7.983-12.233-11.974-.108-.106-.222-.21-.318-.326a1.347 1.347 0 0 1 .705-2.167c.603-.16 1.083.064 1.516.488 4.452 4.368 8.913 8.728 13.371 13.09.163.159.325.32.502.464 1.07.873 2.651.908 3.763.087 1.557-1.148 1.638-3.217.175-4.649C69.984 33.321 61.989 25.5 54.003 17.67c-.241-.236-.438-.265-.732-.14-1.004.43-1.858 1.072-2.577 1.855-1.392 1.516-2.736 3.074-4.092 4.622-1.233 1.408-2.488 2.794-4.067 3.85-1.62 1.085-3.374 1.583-5.334 1.127-1.793-.417-2.915-1.47-3.226-3.285-.247-1.44-.008-2.841.378-4.223.964-3.452 2.616-6.603 4.496-9.647 1.423-2.305 3.145-4.375 5.213-6.162.265-.229.536-.452.811-.683-.043-.046-.063-.08-.093-.097a15.346 15.346 0 0 0-6.56-2.106c-1.991-.171-3.928.125-5.808.738-1.922.627-3.816 1.337-5.73 1.99-1.347.459-2.73.773-4.17.634-2.146-.207-4.215-.743-6.213-1.53-.323-.127-.46-.051-.642.202-3.059 4.27-6.127 8.533-9.193 12.798-1.059 1.472-2.115 2.945-3.19 4.44l14.11 11.445c3.121-3.81 9.13-2.643 10.468 2.057 1.763-1.769 3.855-2.463 6.277-1.686 2.443.785 3.716 2.56 4.034 4.971.706-.021 1.414-.132 2.097-.049 3.468.422 5.701 3.46 5.071 6.818-.022.12.055.3.148.39.482.465 1.02.877 1.473 1.366 1.37 1.483 1.693 3.148.782 4.982-.273.55-.583 1.083-.857 1.633-.247.495-.22.683.19 1.066.747.699 1.598 1.246 2.595 1.54a7.085 7.085 0 0 0 3.186.179c.858-.142 1.68-.394 2.497-.96M89.78 25.618L78.752 7.15c-1.472.29-2.878.59-4.293.842-2.298.41-4.52.184-6.653-.799-1.789-.825-3.579-1.647-5.393-2.414-3.164-1.337-6.424-1.623-9.768-.718-2.955.8-5.466 2.341-7.602 4.457-3.805 3.77-6.222 8.344-7.906 13.323-.333.987-.529 2.006-.466 3.058.052.863.308 1.175 1.151 1.402.694.187 1.366.121 2.025-.132a6.624 6.624 0 0 0 2.33-1.55 70.628 70.628 0 0 0 2.867-3.073c1.406-1.603 2.71-3.296 4.328-4.711 1.125-.985 2.347-1.808 3.85-2.146.788-.178 1.494-.195 2.15.45 6.685 6.569 13.39 13.116 20.087 19.672.106.104.172.247.258.374l14.062-9.567M33.653 53.255c.888-.001 1.574-.295 2.279-.984 1.89-1.848 3.779-3.697 5.667-5.548.144-.14.285-.288.41-.445a2.932 2.932 0 0 0-.31-3.985 3.09 3.09 0 0 0-4.114-.065c-.257.224-.496.469-.74.708-1.772 1.733-3.552 3.46-5.311 5.205-.956.948-1.188 2.076-.685 3.313.455 1.115 1.563 1.803 2.804 1.801m-7.697-5.186c1.26.022 1.988-.294 2.597-.883.628-.606 1.249-1.22 1.872-1.83 1.356-1.327 2.725-2.643 4.064-3.986 1.193-1.197 1.178-3.027.003-4.188a3.075 3.075 0 0 0-4.306-.019 482.277 482.277 0 0 0-5.993 5.868c-.93.93-1.138 2.063-.615 3.255.511 1.164 1.477 1.743 2.378 1.783m-9.487-8.258c.035.963.622 1.908 1.805 2.422 1.2.52 2.344.328 3.303-.546a65.907 65.907 0 0 0 2.797-2.73 2.923 2.923 0 0 0-.06-4.135 3.067 3.067 0 0 0-4.25-.056c-.94.883-1.856 1.793-2.768 2.705-.56.56-.831 1.248-.827 2.34m20.959 14.86c2.227 2.503 5.708 2.994 7.76 2.448-.168-.193-.342-.375-.495-.573-.943-1.216-.977-2.504-.293-3.839.268-.524.571-1.032.836-1.558.256-.51.322-1.058-.03-1.536-.36-.487-.799-.917-1.209-1.378l-6.569 6.437"/></g></g></svg>