<svg xmlns="http://www.w3.org/2000/svg" width="75" height="55" viewBox="0 0 75 55"><g><g><path fill="#e8261c" d="M65.943 54.912c-18.96.117-37.92.117-56.88 0-4.695-.088-8.914-4.164-9.004-9.023a2864.717 2864.717 0 0 1 0-36.777C.146 4.405 4.212.179 9.062.089c18.96-.119 37.921-.119 56.881 0 4.711.088 8.913 4.162 9.003 9.023.072 12.259.072 24.518 0 36.777-.033 1.813-.654 3.552-1.683 5.012.043.346-.145.614-.34.876a1.3 1.3 0 0 1-.865.53c-1.616 1.557-3.774 2.561-6.115 2.605zm-19.158-26.41L45.32 29.92c-4.354 4.163-11.744 4.34-16.283-.005l-.32-.31L5.578 51.149c1.012.7 2.22 1.129 3.516 1.153a4585.7 4585.7 0 0 0 56.817 0c1.44-.027 2.82-.57 3.93-1.463zM3.875 5.538a6.413 6.413 0 0 0-1.212 3.606 2875.043 2875.043 0 0 0 0 36.712 6.446 6.446 0 0 0 1.091 3.427L26.842 27.79zm44.785 21.15L71.53 48.842a6.366 6.366 0 0 0 .813-2.985c.071-12.238.071-24.476 0-36.713-.027-1.45-.58-2.833-1.476-3.943zM68.864 3.509a6.286 6.286 0 0 0-2.953-.81c-18.91-.117-37.821 0-56.732 0a6.407 6.407 0 0 0-3.415 1.04c8.384 8.129 16.728 16.3 25.164 24.376 3.396 3.168 9.089 3.267 12.588-.079z"/></g></g></svg>