<svg xmlns="http://www.w3.org/2000/svg" width="95" height="89" viewBox="0 0 95 89"><defs><clipPath id="hr7xa"><path d="M0 .09h94.902v88.13H0z"/></clipPath></defs><g><g><g><g/><g clip-path="url(#hr7xa)"><path fill="#e8261c" d="M6.903 84.932c2.467 0 4.933.003 7.4-.002.948-.002 1.681.329 1.907 1.317.254 1.114-.57 1.997-1.87 1.97-3.287-.072-6.573-.18-9.86-.28a98.955 98.955 0 0 1-2.861-.115C.46 87.754-.231 86.918.07 85.815a991.51 991.51 0 0 1 3.509-12.42c.288-.997 1.145-1.43 2.057-1.163.854.251 1.306 1.095 1.03 2.144-.549 2.08-1.16 4.143-1.742 6.213-.104.369-.2.739-.365 1.349.446-.278.73-.43.988-.619 4.942-3.598 9.874-7.21 14.83-10.79.612-.44.839-.906.837-1.66-.027-8.41.005-16.82-.04-25.23-.007-1.37.464-2.21 1.665-2.886 7.326-4.12 14.614-8.31 21.936-12.439.777-.438 1.065-.913 1.059-1.815-.043-6.148-.022-12.297-.021-18.445V6.617c-.461.532-.713.8-.94 1.089-1.335 1.692-2.654 3.398-4.001 5.08-.728.908-1.618 1.058-2.4.464-.776-.59-.89-1.543-.196-2.432 2.586-3.316 5.183-6.624 7.81-9.907.88-1.098 1.849-1.095 2.735.01 2.63 3.282 5.226 6.59 7.816 9.903.666.852.54 1.874-.22 2.439-.753.56-1.65.433-2.329-.41-1.352-1.678-2.67-3.385-4.003-5.078-.237-.3-.485-.592-.878-1.073-.047.5-.097.79-.097 1.079-.004 6.325.014 12.65-.023 18.976-.004.768.305 1.123.913 1.468 7.342 4.163 14.66 8.37 22.02 12.504 1.24.696 1.733 1.552 1.726 2.961-.045 8.41-.016 16.82-.034 25.23-.002.655.146 1.104.708 1.51 5.069 3.665 10.115 7.362 15.17 11.044.186.136.404.227.785.437l-1.933-6.87c-.076-.271-.167-.54-.212-.818-.165-1.014.271-1.79 1.108-2.001.93-.236 1.72.199 2.026 1.224.725 2.433 1.41 4.878 2.1 7.321.461 1.628.93 3.255 1.35 4.894.326 1.273-.282 2.113-1.556 2.158-4.205.149-8.41.282-12.616.399-1.164.032-1.879-.552-1.952-1.495-.082-1.06.634-1.75 1.881-1.79 2.156-.071 4.312-.13 6.467-.198.337-.01.673-.044 1.228-.082-.423-.35-.669-.579-.938-.775-4.824-3.52-9.661-7.023-14.465-10.571-.665-.492-1.129-.546-1.865-.122-7.286 4.19-14.61 8.316-21.891 12.517-1.193.687-2.161.664-3.337-.014-7.283-4.196-14.603-8.328-21.89-12.517-.69-.397-1.136-.367-1.773.103-4.805 3.547-9.641 7.05-14.466 10.57-.278.203-.54.426-.811.64l.072.448m61.78-42.25c-.353-.234-.493-.338-.644-.425-6.657-3.794-13.32-7.578-19.962-11.398-.592-.34-.97-.138-1.441.13-6.472 3.691-12.948 7.373-19.422 11.061-.289.165-.56.362-.958.623.455.272.775.474 1.105.66 1.23.693 2.483 1.35 3.69 2.08.84.51 1.045 1.42.598 2.205-.41.718-1.289 1.007-2.125.649-.452-.195-.869-.47-1.302-.709l-3.654-2.012c-.039.352-.075.523-.075.694-.002 7.596.011 15.192-.023 22.787-.003.735.402.97.899 1.252 6.445 3.666 12.888 7.337 19.334 11.003.313.178.646.32 1.11.548 0-3.496-.003-6.78.003-10.062.002-1.295.596-2.062 1.594-2.093 1.036-.033 1.692.768 1.695 2.105.007 2.932 0 5.865.005 8.797 0 .367.033.735.057 1.213.286-.126.447-.18.591-.263 6.69-3.807 13.373-7.627 20.077-11.41.607-.342.595-.785.595-1.319-.003-7.383 0-14.767-.004-22.15 0-.325-.044-.65-.077-1.117-.65.359-1.14.629-1.628.9-1.08.598-2.145 1.228-3.247 1.787-.87.44-1.772.161-2.216-.596-.44-.75-.251-1.594.5-2.146.256-.187.546-.324.823-.48 1.311-.741 2.623-1.48 4.101-2.314"/></g></g><g><path fill="#e8261c" d="M48.007 48.306c.007-1.58.765-2.282 2.454-2.294 1.441-.01 2.882-.023 4.322.004 2.892.056 5.145 2.134 5.181 4.866.05 3.718.045 7.436.005 11.153-.03 2.698-2.162 4.783-5.019 4.917-1.585.075-3.177.049-4.764.009-1.398-.035-2.158-.806-2.176-2.136-.019-1.402-.005-2.806-.006-4.208v-4.21c0-2.7-.008-5.4.003-8.101zm3.487 15.396c1.087 0 2.11.025 3.132-.006 1.177-.036 1.923-.632 1.94-1.746.05-3.646.039-7.293.007-10.94-.008-.904-.565-1.588-1.52-1.68-1.159-.11-2.337-.026-3.559-.026z"/></g><g><path fill="#e8261c" d="M42.647 58.146c-1.202 0-2.219.014-3.236-.004-1.231-.022-1.973-.663-1.964-1.66.01-1 .741-1.593 2.002-1.608.838-.01 1.681.04 2.513-.032.245-.021.65-.365.657-.572.055-1.606.03-3.215.03-4.978-1.96 0-3.804.008-5.648-.003-1.187-.008-1.869-.5-1.984-1.393-.13-1.004.511-1.837 1.593-1.858 2.514-.048 5.03-.055 7.544.004 1.145.027 1.813.844 1.827 2.09.028 2.565.014 5.13.016 7.695.001 2.881.007 5.763-.003 8.644-.006 1.899-.663 2.522-2.63 2.525-2.078.004-4.156.007-6.234-.003-1.422-.008-2.158-.608-2.125-1.702.03-1.045.723-1.558 2.133-1.563 1.568-.006 3.136.026 4.701-.03.276-.01.764-.36.772-.567.065-1.606.036-3.216.036-4.985"/></g></g></g></svg>