<svg xmlns="http://www.w3.org/2000/svg" width="96" height="70" viewBox="0 0 96 70"><defs><clipPath id="mg7aa"><path d="M0 .69h96v69H0z"/></clipPath></defs><g><g><g/><g clip-path="url(#mg7aa)"><path fill="#e8261c" d="M90.632.691C93.845.691 96 2.864 96 6.088c0 19.366 0 38.733-.002 58.099 0 3.385-2.107 5.501-5.475 5.502H48c-14.174 0-28.349.002-42.524 0-3.369-.001-5.473-2.114-5.474-5.505C0 44.818.001 25.452.003 6.086.003 2.85 2.15.692 5.369.69h85.263zm1.956 13.832H3.458c-.016.29-.034.466-.034.642 0 16.314-.002 32.629.004 48.943.001 1.547.654 2.146 2.278 2.146 28.172.002 56.344.003 84.517.002 1.81 0 2.364-.589 2.364-2.5v-48.08zm-.01-3.515V6.616c-.003-1.938-.55-2.483-2.486-2.483H25.945c-6.782 0-13.565-.003-20.347.002-1.257 0-2.07.492-2.123 1.501-.093 1.776-.026 3.56-.026 5.372zM31.117 36.91c-1.355-.002-1.966-.604-1.969-1.96-.01-4.418-.008-8.835-.002-13.252.002-1.427.596-2.029 2.008-2.03 4.247-.007 8.494-.004 12.74-.003 1.925 0 2.368.449 2.389 2.406.002.211.018.423.036.833 1.44-1.027 2.71-1.943 3.99-2.844 1.016-.714 2.042-.617 2.64.23.621.88.406 1.843-.617 2.588-1.734 1.261-3.46 2.536-5.235 3.737-.647.438-.85.921-.833 1.68.05 2.19.025 4.381.016 6.572-.006 1.444-.582 2.039-1.995 2.042-4.39.008-8.78.008-13.168.001zm1.502-3.495h10.198v-3.652c-.85.596-1.542 1.097-2.25 1.572-.96.644-1.666.594-2.494-.212a152.501 152.501 0 0 1-3.107-3.122c-.86-.887-.919-1.928-.187-2.664.732-.737 1.767-.678 2.643.193.728.724 1.419 1.487 2.132 2.238l1.975-1.417c1.54-1.107 1.606-1.282 1.19-3.16h-10.1zm5.144 10.404c4.755.018 8.518 3.844 8.509 8.65-.01 4.844-3.805 8.605-8.67 8.594-4.714-.01-8.46-3.867-8.457-8.703.004-4.753 3.844-8.559 8.618-8.54zm.02 13.8c2.782-.047 5.105-2.436 5.076-5.22-.029-2.796-2.392-5.146-5.161-5.132-2.782.013-5.117 2.365-5.127 5.164-.01 2.829 2.408 5.236 5.213 5.188zm13.878-24.15c4.42-.007 8.84-.007 13.26.002 1.2.002 1.908.636 1.933 1.675.027 1.094-.696 1.769-1.942 1.774-2.246.01-4.492.003-6.737.003-2.175 0-4.35.008-6.524-.004-1.2-.006-1.908-.637-1.933-1.675-.026-1.095.696-1.772 1.943-1.774zM64.91 55.9c1.252.006 1.97.674 1.941 1.767-.026 1.039-.729 1.667-1.932 1.669-4.42.01-8.84.009-13.26.002-1.245-.002-1.965-.676-1.94-1.77.023-1.038.73-1.663 1.93-1.668 2.21-.01 4.42-.003 6.63-.003s4.421-.008 6.631.003zM49.72 30.062c-.024-1.096.687-1.758 1.942-1.766 1.96-.012 3.92-.003 5.88-.003 1.889 0 3.778-.008 5.666.003 1.204.007 1.905.628 1.93 1.67.026 1.093-.691 1.763-1.942 1.766-3.849.009-7.697.009-11.546 0-1.2-.003-1.907-.633-1.93-1.67zm1.95 24.1c-1.257-.008-1.973-.668-1.952-1.76.02-1.037.732-1.678 1.922-1.68 3.85-.009 7.698-.007 11.547.001 1.258.003 1.972.661 1.95 1.757-.018 1.039-.726 1.673-1.92 1.68-1.96.011-3.92.003-5.88.004-1.89 0-3.778.01-5.667-.003zM73.764 5.867c.993.022 1.71.809 1.66 1.821-.049.953-.796 1.641-1.757 1.617-.954-.023-1.66-.752-1.66-1.714 0-1.008.752-1.747 1.757-1.724zm6.838 0c.957.014 1.67.733 1.68 1.694.01 1.01-.735 1.757-1.738 1.744-.955-.012-1.668-.731-1.68-1.695-.012-1.008.736-1.759 1.738-1.743zm6.778-.003c1-.025 1.76.722 1.76 1.731 0 .966-.706 1.7-1.658 1.721-1.004.023-1.764-.721-1.762-1.728.002-.964.71-1.699 1.66-1.723z"/></g></g></g></svg>