<svg xmlns="http://www.w3.org/2000/svg" width="87" height="94" viewBox="0 0 87 94"><g><g><path fill="#ec1d24" d="M85.977 48.923c1.393 1.402 1.36 3.623-.076 5.056-4.537 4.53-8.629 8.612-12.764 12.682-.517.509-.708.962-.703 1.675.035 5.417.032 10.925.03 16.25l-.002 4.062c0 3.251-2.106 5.352-5.366 5.352H5.383C2.113 94 0 91.91 0 88.674V5.611c0-2.87 1.068-4.387 3.804-5.4l.023-.025c.029-.03.058-.06.089-.087L4.028 0H43.16l.115.105c.648.595 1.3 1.19 1.95 1.782 1.39 1.27 2.828 2.581 4.224 3.894 3.162 2.974 6.321 5.954 9.48 8.932 4.102 3.868 8.343 7.868 12.524 11.793.706.663 1.02 1.393 1.016 2.365-.017 4.288-.015 8.648-.013 12.864l.001 4.706.02-.02c.386-.38.772-.761 1.157-1.143l.6-.599c.383-.383.765-.765 1.153-1.141 1.538-1.488 3.682-1.474 5.216.035a642.86 642.86 0 0 1 5.374 5.35zm-36.84 26.219c.297.078.629.174.948.302.669.27 1.103.152 1.72-.466 7.45-7.465 14.87-14.835 22.45-22.356.211-.21.462-.35.729-.494l-1.371-1.338zm1.581 6.991c.068-.086.141-.336.123-.43-.28-1.394-.417-2.026-.754-2.377-.347-.362-1.015-.532-2.346-.87a1.885 1.885 0 0 1-.202-.065 1.432 1.432 0 0 0-.089-.03c-.11.03-.281.082-.35.127-.742 1.76-1.447 3.498-2.193 5.336l-.316.777.661-.261c1.799-.71 3.657-1.443 5.466-2.207zm-6.097-70.138L44.62 25.96c0 .825.08 1.242.278 1.44.2.2.622.281 1.459.281a14472.858 14472.858 0 0 0 21.161-.01L44.621 6.095zm22.786 78.428c1.264 0 1.454-.184 1.454-1.402.002-5.95.002-11.901-.001-17.851 0-.068-.002-.138-.005-.211-.08.072-.152.14-.223.21l-3.52 3.502c-2.776 2.762-5.552 5.523-8.336 8.277-.42.416-.883.831-1.426 1.057a763.788 763.788 0 0 1-13.367 5.431c-.604.238-1.448-.115-1.837-.394-.35-.25-.865-.847-.374-2.043.568-1.384 1.13-2.77 1.692-4.158 1.049-2.589 2.132-5.266 3.247-7.88a8.915 8.915 0 0 1 1.853-2.72c4.465-4.478 9.022-9.014 13.428-13.4a7904.83 7904.83 0 0 0 8.427-8.397c.24-.24.42-.568.422-.766.017-3.155.019-6.363.02-9.465.002-2.826.004-5.652.016-8.477.002-.356-.052-.463-.085-.495-.032-.032-.147-.077-.487-.085-4.975.02-10.03.018-14.924.018l-7.144.001h-.005c-1.51 0-2.808-.497-3.754-1.437-.95-.943-1.452-2.24-1.453-3.75-.002-2.649-.002-5.298-.001-7.948V3.645l-25.961-.004h-4.039l-5.958.001c-1.299.002-1.464.17-1.47 1.495v83.789c0 1.343.159 1.497 1.548 1.497h62.263zm11.202-34.622l-1.198-1.29-.037.035c-.195.18-.365.337-.53.5l-7.899 7.858-3.872 3.854a6558.09 6558.09 0 0 0-10.927 10.886c-.408.408-.481.563-.489.619.097.642.286 1.31.454 1.903zm4.48-4.36l-5.209-5.239-1.715 1.69 5.216 5.188zM14.722 39.477H60.7v3.454H14.722zm-.007 10.178H60.67v3.47H14.715zm-.023 13.141h35.72v3.438h-35.72zm.002 8.735h25.467v3.465H14.694zm-.002-46.626H34.29v3.437H14.692z"/></g></g></svg>