<svg xmlns="http://www.w3.org/2000/svg" width="80" height="74" viewBox="0 0 80 74"><g><g><g><path fill="#e8261c" d="M14.607 3.345c-3.814 0-6.857 3.005-6.904 6.845-.045 3.716 3.071 6.866 6.793 6.868h.004c3.863 0 6.844-2.967 6.876-6.846.032-3.741-2.934-6.804-6.648-6.866l-.12-.001m26.528 6.267h-.047c-3.803.026-6.874 3.12-6.86 6.912.014 3.715 3.114 6.802 6.824 6.802h.03c3.887-.018 6.847-3.059 6.822-7.008-.024-3.665-3.099-6.706-6.77-6.706M8.757 18.616l-.16.003c-3.331.092-5.271 1.99-5.268 5.358.006 6.096.007 12.191.01 18.287 0 3.548.776 4.695 4.07 5.96.421 4.369.844 8.765 1.269 13.16.244 2.528.484 5.056.737 7.582.092.911.545 1.51 1.52 1.514a541.381 541.381 0 0 0 7.28-.007c.851-.007 1.366-.483 1.457-1.33.226-2.11.425-4.222.626-6.335.44-4.606.878-9.213 1.303-13.821.06-.635.33-.92.967-1.125 1.175-.38 2.087-1.157 2.622-2.165.162.182.355.342.58.47.318.18.672.267 1.03.267.713 0 1.443-.345 1.935-.99.248-.326.428-.715.587-1.097 1.567-3.746 3.122-7.498 4.685-11.247.096-.23.232-.444.5-.948.28 2.758.431 5.215.807 7.637.342 2.196.103 4.236-.64 6.328-1.393 3.923-2.611 5.818-3.903 9.777-.543 1.663-.342 1.94 1.444 1.965.136.002.273.003.41.003.33 0 .66-.004.99-.004h.16c1.29.006 1.467.183 1.675 1.453.772 4.732 1.562 5.28 2.34 10.01.131.793.545 1.17 1.342 1.17l.084-.001a55.98 55.98 0 0 1 1.758-.026 108.386 108.386 0 0 1 2.035.022c.857 0 1.247-.414 1.385-1.278.677-4.218 1.36-4.257 2.11-8.463.475-2.662.14-2.89 1.93-2.89.367 0 .824.01 1.395.01h.03c.069 0 .138-.003.208-.004 1.77-.028 1.985-.316 1.445-1.968-1.456-4.452-2.926-6.81-4.364-11.268-.222-.688-.484-1.436-.424-2.13.291-3.347.686-6.685 1.045-10.027l.221-.03c.19.441.384.88.568 1.324 1.536 3.721 3.06 7.448 4.61 11.163.402.961 1.262 1.534 2.14 1.534.032 0 .064 0 .097-.002-.434.959-.87 1.917-1.302 2.877-.44.976-.17 1.88.595 2.27.251.127.517.189.779.189.634 0 1.248-.36 1.596-1.018.373-.704.687-1.44 1.027-2.163l2.867-6.07c0 .543.038.78-.005 1-.837 4.26-1.673 8.519-2.533 12.773-.438 2.167-.493 2.39 1.272 2.39.176 0 .369-.003.582-.005h.05c.885 0 1.217.318 1.31 1.236.312 3.112.728 6.214 1.076 9.324.085.76.397 1.111 1.123 1.111.048 0 .099-.001.151-.004.49-.03.981-.041 1.473-.041a43.349 43.349 0 0 1 1.512.028c.69 0 .985-.337 1.065-1.03.324-2.797.677-5.59 1.019-8.386.263-2.153.263-2.153 2.387-2.212 1.067-.03 1.33-.327 1.135-1.332-.225-1.16-.476-2.313-.705-3.47-.734-3.709-1.464-7.418-2.195-11.127l.19-.101c.09.178.182.355.267.535 1.153 2.45 2.274 4.917 3.483 7.338.231.462.773.986 1.234 1.054.06.008.125.012.193.012.513 0 1.202-.242 1.395-.586.283-.504.298-1.38.053-1.925-1.633-3.643-3.368-7.24-5.066-10.855-.423-.9-.85-1.333-1.445-1.333-.348 0-.755.149-1.253.438-1.187.689-2.363 1.05-3.535 1.05-1.172 0-2.34-.36-3.512-1.117-.372-.24-.726-.357-1.051-.357-.58 0-1.067.375-1.402 1.103a1346.42 1346.42 0 0 0-2.008 4.39c-2.14-5.255-4.325-10.491-6.408-15.768-.433-1.097-1.273-1.79-2.305-1.79-.465 0-.968.14-1.491.448-1.9 1.116-3.83 1.651-5.765 1.651-2.002 0-4.01-.573-5.997-1.667-.58-.319-1.106-.48-1.574-.48-.858 0-1.525.544-1.989 1.665-1.327 3.207-2.64 6.42-3.956 9.632-.672 1.64-1.35 3.278-2.017 4.92.015-5.964.014-11.928-.011-17.892-.009-1.976-1.33-3.734-3.233-4.262-.847-.235-1.78-.137-2.667-.25a2.095 2.095 0 0 0-.268-.018c-.593 0-.978.29-1.335.838-1.156 1.77-2.381 3.496-3.653 5.347-1.117-1.63-2.252-3.125-3.206-4.73-.639-1.075-1.393-1.47-2.595-1.47m56.536 8.026c-2.625 0-4.819 2.196-4.837 4.866-.018 2.586 2.215 4.84 4.778 4.84h.057c2.645-.035 4.811-2.22 4.822-4.864.01-2.563-2.177-4.797-4.738-4.842h-.082M14.602 0l.176.001a9.99 9.99 0 0 1 7.055 3.064 10.123 10.123 0 0 1 2.861 7.17 10.337 10.337 0 0 1-1.538 5.386c.07.017.14.035.21.055 3.326.923 5.66 3.995 5.675 7.472l.004 1.202c.952-1.684 2.245-2.389 3.292-2.674A10.026 10.026 0 0 1 30.9 16.53c-.02-5.62 4.541-10.225 10.171-10.264h.069c2.656 0 5.173 1.043 7.09 2.938 1.925 1.903 2.995 4.42 3.012 7.087.012 1.95-.483 3.805-1.422 5.405 1.812.441 3.32 1.794 4.09 3.746a781.087 781.087 0 0 0 3.746 9.268l.102-.084a7.975 7.975 0 0 1-.632-3.142c.03-4.514 3.694-8.187 8.165-8.187l.14.001c2.116.037 4.122.916 5.648 2.476 1.53 1.563 2.368 3.596 2.36 5.723a8.135 8.135 0 0 1-.633 3.12c.59.492 1.155 1.207 1.634 2.227.455.968.912 1.934 1.369 2.9 1.236 2.612 2.514 5.313 3.723 8.01.686 1.532.61 3.518-.189 4.942-.851 1.52-2.52 2.157-3.857 2.27.121.587.245 1.19.362 1.795.29 1.497.038 2.758-.75 3.748-.859 1.077-2.016 1.407-2.817 1.513l-.195 1.581c-.247 2.007-.503 4.081-.74 6.118-.28 2.422-1.996 3.987-4.37 3.987-.06 0-.121-.001-.184-.004a40.005 40.005 0 0 0-1.328-.024c-.466 0-.883.011-1.275.034a5.84 5.84 0 0 1-.35.011c-2.413 0-4.152-1.603-4.43-4.083a418.984 418.984 0 0 0-.433-3.682c-.157-1.297-.317-2.626-.465-3.96-.904-.112-1.97-.448-2.787-1.452a3.78 3.78 0 0 1-.852-2.086 3.92 3.92 0 0 1-.502.963c-1.232 1.739-3.272 1.771-4.253 1.787h-.036c-.075.003-.15.005-.224.005H49.8l-.022.126a29.485 29.485 0 0 1-1.168 4.593c-.336 1.023-.626 1.906-.932 3.813-.405 2.524-2.195 4.09-4.671 4.09h-.111c-.78-.014-1.373-.02-1.924-.02-.602 0-1.142.007-1.653.023a6.465 6.465 0 0 1-.19.003c-2.412 0-4.227-1.557-4.623-3.968-.355-2.152-.705-3.334-1.077-4.586-.336-1.136-.682-2.302-1.025-4.079-.08 0-.159 0-.238-.002-.984-.014-3.031-.043-4.262-1.776-1.227-1.728-.6-3.651-.298-4.576.747-2.287 1.474-3.942 2.177-5.543l.241-.549a5.714 5.714 0 0 1-3.225 1.017c-.245 0-.489-.017-.73-.05-.394.31-.82.583-1.271.815-.402 4.329-.818 8.695-1.19 12.587l-.046.496a502.481 502.481 0 0 1-.584 5.88c-.27 2.522-2.22 4.297-4.74 4.316a550.77 550.77 0 0 1-7.32.007c-2.61-.013-4.545-1.83-4.816-4.523-.199-1.986-.393-4.003-.58-5.953l-.159-1.643-.885-9.192-.197-2.039c-1.085-.584-2.121-1.362-2.89-2.489C.176 46.21.01 44.1.01 42.27l-.001-4.582C.006 33.12.005 28.55 0 23.982c-.005-4.24 2.26-7.306 5.95-8.335a9.96 9.96 0 0 1-1.575-5.502c.033-2.742 1.11-5.3 3.03-7.202A10.16 10.16 0 0 1 14.602 0M55.04 56.296c.038-.201.079-.402.12-.602l.007-.037.104-.517a4.94 4.94 0 0 1-.523-.05c.104.328.222.742.292 1.206"/></g></g></g></svg>