<svg xmlns="http://www.w3.org/2000/svg" width="80" height="82" viewBox="0 0 80 82"><g><g><path fill="#e8261c" d="M72.04 20.46c6.05 6.81 8.673 14.443 7.795 22.69-.684 6.424-3.406 12.073-8.089 16.792a28.181 28.181 0 0 1-15.591 8.024c-5.441.88-11.03.15-15.777-2.06l-.17.377c-.277.613-.564 1.247-.813 1.88-.005.041.044.209.141.356.292.446.605.893.907 1.325.201.287.403.575.6.866.685 1.006.625 1.69-.22 2.52a706.27 706.27 0 0 1-4.228 4.118c-.943.91-1.588.967-2.655.237-.224-.153-.446-.312-.667-.47-.446-.32-.908-.65-1.382-.925-.178-.104-.52-.13-.73-.055-.446.158-.893.352-1.326.539-.463.2-.943.408-1.432.578-.364.126-.5.286-.558.658-.074.474-.161.953-.246 1.415-.077.422-.156.857-.225 1.285-.142.879-.694 1.367-1.554 1.375a362.908 362.908 0 0 1-6.712 0c-.837-.008-1.404-.51-1.555-1.38-.041-.234-.08-.468-.12-.703-.112-.678-.23-1.379-.39-2.052-.046-.193-.242-.444-.411-.527-.482-.236-.989-.448-1.48-.654-.433-.182-.882-.37-1.317-.575-.344-.163-.521-.152-.786.05-.625.476-1.287.92-1.927 1.35l-.273.183c-.903.608-1.619.541-2.392-.222-1.615-1.596-3.017-3-4.286-4.29-.842-.858-.858-1.59-.055-2.528.178-.208.36-.413.54-.619.399-.45.81-.915 1.172-1.398.092-.123.125-.433.064-.603a26.758 26.758 0 0 0-.576-1.417c-.196-.458-.399-.932-.574-1.412-.123-.337-.23-.434-.519-.473-.707-.095-1.417-.227-2.103-.355l-.453-.083C.441 64.052.005 63.529.003 62.28c-.004-1.993-.004-3.987 0-5.98.003-1.237.445-1.751 1.69-1.966.275-.047.549-.103.823-.158a15.997 15.997 0 0 1 1.58-.264c.391-.039.531-.16.679-.584.314-.903.695-1.812 1.134-2.702.163-.33.15-.495-.06-.773-.51-.678-.99-1.393-1.452-2.084l-.078-.116c-.58-.864-.515-1.606.204-2.334a473.227 473.227 0 0 1 4.288-4.288c.78-.77 1.542-.83 2.471-.2.275.186.543.408.801.623.553.458 1.075.891 1.61.961.441.059.952-.182 1.493-.436.4-.188.814-.383 1.243-.477.78-.17 1.077-.526 1.136-1.357.035-.506.132-1.006.227-1.49.034-.176.068-.353.1-.53.185-1.045.774-1.536 1.853-1.547a302.11 302.11 0 0 1 2.344-.01c.47 0 .94-.001 1.41-.004.656-4.79 2.397-9.144 5.177-12.945 3.824-5.227 8.877-8.815 15.02-10.661.642-.193.782-.377.716-.938-.059-.495-.046-.995-.035-1.478.006-.208.011-.416.01-.623l-.589-.03c-2.395-.12-4.522-2.063-4.74-4.334-.247-2.58 1.29-4.81 3.738-5.423.322-.08.686-.12 1.11-.121l2.16-.003C50.365 0 54.81-.007 59.182.01c2.387.01 4.57 1.886 4.865 4.183.333 2.593-1.213 4.926-3.675 5.548-.405.102-.822.132-1.263.165a30.1 30.1 0 0 0-.386.03l-.001.444c-.003.736-.006 1.497.019 2.245a.603.603 0 0 0 .213.158c1.784.68 3.602 1.361 5.36 2.02l1.32.494c.1-.093.2-.187.296-.284.539-.538 1.076-1.077 1.613-1.616 1.08-1.084 2.196-2.205 3.31-3.294 1.245-1.22 2.745-1.545 4.338-.94 1.608.61 2.54 1.798 2.695 3.436.117 1.238-.309 2.348-1.265 3.297-1.104 1.096-2.204 2.193-3.317 3.303zm-2.636-4.556l-1.219 1.242 1.583 1.182.412-.415 1.167-1.175c.316-.317.634-.633.952-.949.698-.694 1.42-1.411 2.11-2.132.452-.471.475-1.029.06-1.455a1.047 1.047 0 0 0-.729-.3.85.85 0 0 0-.596.225 312.48 312.48 0 0 0-3.74 3.777zM43.977 6.76c5.191.02 10.417.007 14.844-.008.321-.001.674-.076.968-.206.736-.324 1.168-1.143 1.006-1.905-.196-.923-.882-1.48-1.834-1.49-1.774-.018-3.579-.014-5.325-.011l-1.872.003-.303.006c-.736 0-1.471-.002-2.206-.003-1.736-.005-3.531-.009-5.295.012-1.163.013-1.908.74-1.899 1.85.01 1.06.761 1.747 1.916 1.752zm3.498 5.098h8.016V9.96h-8.016zM42.233 57.37l-.636-.128c-.679-.138-1.32-.268-1.975-.372-.823-.13-1.351-.585-1.663-1.429a72.514 72.514 0 0 0-1.734-4.302c-.377-.85-.325-1.523.168-2.183.386-.516.757-1.045 1.15-1.606l.385-.547-2.984-2.681-.398.266c-.495.33-1.054.703-1.587 1.091-.888.649-1.676.424-2.33.119-1.501-.701-2.828-1.238-4.058-1.641-.96-.315-1.443-.878-1.569-1.827-.082-.62-.176-1.235-.276-1.888l-.098-.64-.718-.001c-1.066-.004-2.073-.008-3.098.028a.886.886 0 0 0-.225.369 28.885 28.885 0 0 0-.478 2.424c-.146.921-.78 1.275-1.382 1.5-1.29.48-2.785 1.047-4.221 1.706-.9.413-1.618.356-2.329-.188a42.116 42.116 0 0 0-1.516-1.092l-.389-.272-2.792 2.788.309.461c.363.543.738 1.104 1.134 1.65.503.692.535 1.388.104 2.256a46.383 46.383 0 0 0-1.75 4.02c-.363.943-.902 1.386-1.803 1.48-.634.067-1.279.186-1.903.3l-.584.107v3.979l.634.126c.666.134 1.296.26 1.936.368.839.142 1.347.583 1.65 1.433a51.813 51.813 0 0 0 1.74 4.29c.388.84.336 1.513-.167 2.178-.388.513-.76 1.04-1.152 1.598l-.386.545 3.009 2.672.344-.245c.48-.341 1.025-.728 1.562-1.125.846-.624 1.613-.382 2.186-.102 1.34.656 2.656 1.282 4.007 1.737 1.108.373 1.625.993 1.728 2.071.055.573.151 1.14.252 1.74.032.187.064.377.095.569.295 0 .587-.003.878-.004.375-.003.741-.005 1.104-.005.541 0 1.074.005 1.613.022.333.01.413-.062.474-.426.075-.453.163-.91.248-1.35.066-.343.132-.686.193-1.03.165-.932.828-1.288 1.388-1.494a61.43 61.43 0 0 0 4.293-1.746c.89-.405 1.582-.33 2.245.246.465.403.956.785 1.475 1.19l.505.395.008-.01 2.654-2.993-.284-.421c-.365-.543-.779-1.157-1.197-1.758-.52-.749-.304-1.436-.096-1.887a94.538 94.538 0 0 0 1.936-4.475c.349-.872.9-1.337 1.735-1.465.678-.104 1.355-.216 2.026-.327l.61-.1zm30.33-3.33c3.648-5.492 4.955-12.173 3.682-18.812-1.14-5.936-4.444-11.284-9.306-15.06-5.086-3.948-11.474-5.763-17.988-5.109-7.207.724-13.15 4.132-17.663 10.13-2.327 3.093-3.857 6.712-4.548 10.756-.093.54-.092.807.307 1.083.39.27.523.868.616 1.407.07.402.11.81.147 1.206.037.395.075.803.145 1.193.026.147.208.371.36.445.805.389 1.648.741 2.464 1.082l.445.187c.078.033.23.098.306.11.413-.256.821-.54 1.219-.82a32.493 32.493 0 0 0-2.274-.09c-.255-.003-.51-.007-.766-.013-.964-.023-1.6-.62-1.616-1.52-.019-.941.625-1.563 1.64-1.584a93.186 93.186 0 0 1 2.264-.011c.378.001.757.002 1.135.001h.02c.832 0 1.34.155 1.646.502.263.299.36.718.309 1.343l.24.079c.356.115.725.234.998.493 1.606 1.52 3.164 3.105 4.477 4.453.717.737.761 1.437.146 2.338-.185.271-.375.54-.566.807-.333.468-.677.952-.982 1.444-.08.13-.1.406-.04.568a39.87 39.87 0 0 0 1.232 2.943c.078.167.298.36.452.398a27.35 27.35 0 0 0 1.795.346c.295.05.59.1.883.155 1.135.211 1.558.725 1.561 1.895.004 1.198.002 2.397 0 3.596l-.002 2.06c0 1.376-.1 1.765-1.04 2.167 3.405 1.187 8.443 1.444 12.36.59 6.635-1.449 12.297-5.27 15.943-10.758zM22.55 46.607c7.157.043 12.746 5.752 12.725 12.997-.01 3.303-1.35 6.43-3.772 8.803-2.414 2.366-5.582 3.668-8.921 3.668h-.03c-3.461-.007-6.683-1.334-9.072-3.736-2.388-2.402-3.698-5.631-3.687-9.094.01-3.355 1.354-6.528 3.784-8.935 2.411-2.39 5.569-3.703 8.897-3.703h.076zm6.786 19.555c1.805-1.826 2.79-4.359 2.772-7.13-.032-5.113-4.372-9.27-9.676-9.27h-.009c-2.513.003-4.885 1-6.681 2.808a9.457 9.457 0 0 0-2.78 6.755c.014 2.6 1.012 5.027 2.81 6.832a9.395 9.395 0 0 0 6.708 2.778h.05-.001c2.636-.014 5.053-.998 6.807-2.773zm-2.973-11.708c.71-.71 1.647-1.408 2.615-.485.318.302.481.645.486 1.017.006.515-.29 1.063-.904 1.678l-2.069 2.07c-1.856 1.859-3.713 3.717-5.571 5.574-.521.52-.959.78-1.397.78-.438 0-.878-.259-1.403-.777a109.701 109.701 0 0 1-1.827-1.833c-.753-.777-.795-1.675-.111-2.343.691-.675 1.563-.615 2.333.162.28.283.526.585.786.906l.15.182 2.002-2.007 4.91-4.924zm26.705 5.479c0 .19.002.38.004.568.004.452.009.92-.008 1.382-.034.942-.664 1.576-1.569 1.578h-.004a1.536 1.536 0 0 1-1.562-1.507 61.2 61.2 0 0 1-.006-4.059c.015-.439.173-.81.458-1.073.305-.28.724-.416 1.214-.392.886.043 1.434.624 1.467 1.554.015.445.012.894.009 1.33-.002.206-.003.412-.003.619zm14.257-33.385c-3.516 3.522-7.151 7.164-10.745 10.727-.337.335-.415.514-.24.98.787 2.106.351 4.062-1.262 5.657-1.098 1.086-2.351 1.637-3.695 1.637a5.629 5.629 0 0 1-1.978-.378c-2.178-.814-3.412-2.431-3.568-4.676-.142-2.04.733-3.905 2.34-4.989 1.618-1.09 3.69-1.202 5.544-.298.113.054.224.111.351.176l.01.005 11.009-11.01c.143-.145.286-.29.432-.43.439-.425.886-.64 1.327-.64h.025c.385.008.738.176 1.05.5.391.407.886 1.25-.195 2.333zM52.857 41.812c.454-.447.716-1.038.721-1.62.005-.584-.246-1.174-.688-1.619-.443-.446-1.034-.702-1.621-.702h-.004a2.31 2.31 0 0 0-2.322 2.296c-.008.591.237 1.186.673 1.631a2.319 2.319 0 0 0 1.618.71c.574.009 1.17-.248 1.623-.696zM50.402 23.52a1.407 1.407 0 0 1-.467-1.015c-.058-1.4-.055-2.818.01-4.215.018-.398.185-.754.471-1.003.318-.276.749-.405 1.217-.36.877.082 1.384.611 1.427 1.491.013.258.012.517.01.768v.96l-.004.606a116.682 116.682 0 0 1-.003 1.556c-.019.962-.526 1.548-1.393 1.608a2.039 2.039 0 0 1-.144.005c-.437 0-.832-.14-1.124-.401zm14.92 28.165c.847.808 1.709 1.666 2.633 2.62.69.713.711 1.631.05 2.285-.317.314-.68.471-1.05.471-.394 0-.795-.176-1.16-.527l-.338-.324c-.81-.777-1.65-1.58-2.39-2.453-.357-.422-.428-1.203-.27-1.667.12-.35.454-.572.776-.786.128-.084.248-.164.352-.25l.166-.134.183.11c.138.084.266.153.385.218.254.138.474.257.662.437zM40.476 27.319c.034.112.07.228.12.353l.064.164-.11.137c-.067.082-.132.182-.202.288-.185.282-.395.601-.725.742a1.746 1.746 0 0 1-.666.122c-.342 0-.69-.085-.899-.27a38.288 38.288 0 0 1-3.105-3.086c-.535-.595-.461-1.405.183-2.017.64-.608 1.41-.639 2.01-.08 1.072 1 2.085 2.045 3.03 3.03.16.166.225.375.3.617zm32.681 11.316c.915.02 1.583.68 1.588 1.569.005.93-.57 1.492-1.579 1.54-.253.013-.508.017-.76.017-.202 0-.402-.002-.6-.005a48.368 48.368 0 0 0-.593-.004h-.304v-.02l-.31.005c-.467.008-.949.017-1.427-.018-.895-.064-1.479-.704-1.452-1.592.026-.88.648-1.482 1.547-1.498a96.186 96.186 0 0 1 3.89.006z"/></g></g></svg>