<svg xmlns="http://www.w3.org/2000/svg" width="67" height="80" viewBox="0 0 67 80"><defs><clipPath id="amsma"><path d="M0 0h66.777v80H0z"/></clipPath></defs><g><g><g/><g clip-path="url(#amsma)"><path fill="#e8261c" d="M66.777 15.641c-.022 5.633-.008 11.266-.008 16.898 0 5.32.013 10.64-.002 15.96-.008 2.456-.984 4.613-2.23 6.658-2.309 3.783-5.38 6.908-8.688 9.803-6.442 5.637-13.445 10.478-20.952 14.6-1.05.576-1.946.59-3.003.023-9.022-4.835-17.393-10.552-24.46-18.021-2.667-2.82-4.945-5.922-6.381-9.573A14.98 14.98 0 0 1 0 46.42c.014-10.327.007-20.653.007-30.98 0-1.47.536-2.016 2.009-2.085 3.56-.164 6.917-1.234 10.248-2.371 5.662-1.933 11.159-4.257 16.25-7.424 1.311-.815 2.42-1.952 3.624-2.94.257-.21.521-.414.782-.621h.94c1.032.902 2 1.893 3.107 2.69 3.6 2.585 7.592 4.455 11.656 6.173 4.328 1.83 8.745 3.397 13.393 4.216.87.153 1.759.222 2.642.27 1.653.09 2.125.634 2.119 2.292m-6.185 39.833c1.937-2.631 2.995-5.463 2.948-8.842-.134-9.724-.05-19.45-.051-29.177v-.75c-10.988-2.084-20.96-6.295-30.088-12.52-9.196 6.143-19.238 10.271-30.125 12.508v.527c0 9.908-.004 19.817.013 29.725a9.62 9.62 0 0 0 .256 2.087c.867 3.834 3.036 6.952 5.624 9.784 6.697 7.33 14.815 12.78 23.466 17.513.545.298.964.28 1.5-.02 7.259-4.07 14.081-8.76 20.327-14.267 2.255-1.988 4.342-4.14 6.13-6.568m-2.152-20.27c0 3.806-.1 7.616.04 11.417.075 2.02-.597 3.636-1.73 5.194-2.503 3.446-5.546 6.372-8.832 9.045-4.296 3.494-8.892 6.566-13.666 9.373-.668.393-1.313.448-1.989.037-5.63-3.415-11.094-7.058-15.929-11.562-2.45-2.284-4.687-4.754-6.405-7.653-1.056-1.782-1.627-3.65-1.607-5.776.07-7.586.024-15.172.023-22.757 0-1.375.31-1.797 1.631-2.177 7.85-2.26 15.375-5.281 22.401-9.477.74-.442 1.422-.376 2.13.048a86.939 86.939 0 0 0 22.397 9.452c1.143.304 1.538.809 1.539 2.01.004 4.276.001 8.55.001 12.826h-.004m-3.282.622c0-3.806-.032-7.613.023-11.418.013-.872-.28-1.19-1.085-1.424a90.737 90.737 0 0 1-20.085-8.554c-.475-.274-.817-.249-1.279.015-6.41 3.657-13.19 6.454-20.26 8.55-.675.2-.879.498-.876 1.19.026 7.196.027 14.392.005 21.587-.004 1.241.214 2.425.923 3.413 1.256 1.752 2.488 3.556 3.974 5.104 4.785 4.983 10.434 8.874 16.316 12.438.23.14.709.103.953-.045 5.603-3.409 11.035-7.067 15.763-11.642 1.772-1.715 3.363-3.63 4.91-5.554.459-.57.672-1.48.685-2.24.067-3.806.03-7.613.033-11.42"/></g></g></g></svg>