<svg xmlns="http://www.w3.org/2000/svg" width="78" height="73" viewBox="0 0 78 73"><defs><clipPath id="sxspa"><path d="M0 0h78v73H0z"/></clipPath></defs><g><g><g/><g clip-path="url(#sxspa)"><path fill="#e8261c" d="M78 36.1v3.295l-.028.05a2.136 2.136 0 0 0-.052.1c-.37.768-.942 1.19-1.61 1.19-.586 0-1.178-.325-1.668-.916-.977-1.177-2.295-2.685-3.83-3.91-2.179-1.74-4.507-2.623-6.92-2.623-2.268 0-4.517.782-6.686 2.324a17.479 17.479 0 0 0-4.21 4.218c-.43.614-.99.952-1.576.952-.574 0-1.13-.325-1.567-.915-1.516-2.05-3.349-3.723-5.446-4.97-1.788-1.063-3.619-1.602-5.441-1.602-1.9 0-3.822.585-5.714 1.739-2.127 1.297-3.824 2.9-5.044 4.768-.376.575-.989.918-1.64.918-.643 0-1.21-.314-1.597-.885-1.22-1.798-2.85-3.333-4.984-4.692-1.924-1.226-3.895-1.848-5.858-1.848-1.974 0-3.967.629-5.925 1.868-1.867 1.182-3.482 2.724-4.935 4.716-.29.396-.782.868-1.492.868-.193 0-.393-.035-.594-.104C.396 40.37-.002 39.76 0 38.827v-.486c0-.674-.001-1.309.042-1.947.433-6.29 2.267-12.075 5.451-17.193 3.12-5.017 6.937-9.122 11.343-12.2 4.453-3.112 9.632-5.26 15.393-6.388.908-.178 1.851-.308 2.764-.434.42-.058.835-.115 1.249-.177L36.275 0l5.48.002c.373.053.745.102 1.118.15.835.11 1.693.223 2.523.372 8.005 1.435 15.006 5.046 20.81 10.732 5.938 5.818 9.701 12.813 11.185 20.79.17.918.303 1.865.43 2.78.058.414.115.828.177 1.242zm-53.083-3.106c.64-9.1 1.643-18.706 6.15-27.332l.726-1.392-1.534.338C17.021 7.525 6.29 18.862 4.162 32.178l-.274 1.713 1.42-1c2.946-2.075 5.91-3.128 8.811-3.128 3.178 0 6.414 1.264 9.618 3.757l1.084.844zm24.567-.665a7.116 7.116 0 0 0-.01-.725c-.048-.578-.094-1.157-.14-1.736-.132-1.661-.268-3.38-.444-5.07-.54-5.195-1.4-9.402-2.711-13.24-.774-2.265-1.755-4.62-3.685-6.502-1.041-1.015-2.252-1.552-3.502-1.552-1.211 0-2.382.508-3.387 1.469-.666.637-1.298 1.433-1.931 2.434-1.36 2.15-2.094 4.593-2.676 6.715-1.29 4.707-1.84 9.506-2.177 13.162-.108 1.178-.177 2.346-.25 3.583-.035.584-.07 1.17-.109 1.772l-.103 1.576 1.27-.94c3.14-2.322 6.285-3.5 9.349-3.5 3.078 0 6.216 1.19 9.328 3.535l1.174.884v-1.468c0-.146.002-.277.004-.397zm24.77 1.655l-.345-1.775c-1.532-7.891-5.229-14.522-10.988-19.71-4.357-3.925-9.362-6.533-15.3-7.974l-1.626-.395.814 1.463c2.598 4.664 3.802 9.547 4.561 13.28 1.009 4.96 1.415 9.893 1.68 14.064l.086 1.368 1.09-.833c3.202-2.449 6.43-3.69 9.591-3.69 2.932 0 5.945 1.065 8.954 3.166zM39.006 37.23c1.062 0 1.748.757 1.749 1.928.002 2.988.002 5.977.001 8.966V63.65C40.753 68.718 36.468 73 31.397 73c-.229 0-.462-.009-.693-.027-2.077-.159-4.196-1.253-5.815-3.001-1.619-1.75-2.547-3.947-2.545-6.031 0-1.106.71-1.886 1.724-1.898h.024c1.018 0 1.723.74 1.755 1.843.083 2.846 1.337 4.64 3.727 5.33 1.417.41 2.892.374 4.329-.107 2.149-.719 3.339-2.626 3.35-5.369.01-2.593.007-5.2.004-7.723v-.27l-.002-3.248v-3.243c-.001-3.306-.002-6.725.004-10.087.002-1.191.67-1.934 1.746-1.939z"/></g></g></g></svg>