<svg xmlns="http://www.w3.org/2000/svg" width="80" height="77" viewBox="0 0 80 77"><g><g><g><path fill="#e8261c" d="M71.063 19.863c.255.291.447.62.578.987a3.253 3.253 0 0 1-.035 2.323c-.155.39-.368.736-.641 1.034a3.16 3.16 0 0 1-.956.716 2.658 2.658 0 0 1-1.184.267c-.498 0-.936-.086-1.313-.26a2.884 2.884 0 0 1-.956-.691 2.91 2.91 0 0 1-.586-.99 3.358 3.358 0 0 1 .008-2.288 3.3 3.3 0 0 1 .594-1.035c.26-.307.582-.557.967-.751a2.82 2.82 0 0 1 1.286-.291c.488 0 .92.09 1.294.271.375.181.69.417.944.708zm-1.247 2.91a3.52 3.52 0 0 0 .05-.587c0-.21-.016-.435-.05-.676a2.885 2.885 0 0 0-.174-.668 1.486 1.486 0 0 0-.327-.511.695.695 0 0 0-.513-.205.737.737 0 0 0-.513.185 1.375 1.375 0 0 0-.327.448 2.114 2.114 0 0 0-.17.563c-.032.199-.047.377-.047.534 0 .2.015.418.047.657.032.238.087.46.166.664.079.205.189.376.331.515a.745.745 0 0 0 .545.209.763.763 0 0 0 .493-.162 1.14 1.14 0 0 0 .32-.412c.078-.168.135-.353.169-.555zm-14.958-3.999c.822.509 1.427 1.046 1.814 1.612.388.566.582 1.159.582 1.777 0 .524-.11.976-.33 1.356-.22.38-.513.695-.88.944a3.89 3.89 0 0 1-1.268.55c-.48.118-.98.177-1.504.177a5.397 5.397 0 0 1-1.621-.26 3.927 3.927 0 0 1-.77-.35 2.728 2.728 0 0 1-.644-.526 2.412 2.412 0 0 1-.444-.723 2.517 2.517 0 0 1-.164-.94c0-.31.06-.61.18-.9.12-.291.28-.567.48-.826.198-.26.425-.495.679-.708a5.32 5.32 0 0 1 .78-.546v-.016a5.098 5.098 0 0 1-.902-.712 4.14 4.14 0 0 1-.601-.754 2.96 2.96 0 0 1-.334-.755 2.674 2.674 0 0 1-.102-.704c0-.524.113-.979.338-1.364.225-.385.514-.705.868-.96a3.776 3.776 0 0 1 1.174-.565c.429-.124.85-.185 1.264-.185.413 0 .82.06 1.22.18.401.121.756.297 1.065.527.309.231.559.517.75.858.191.34.287.73.287 1.171 0 .278-.058.546-.173.806a3.23 3.23 0 0 1-.448.727 4.296 4.296 0 0 1-.616.618 5.255 5.255 0 0 1-.68.475zm-2.705-3.325c-.07.18-.106.37-.106.569 0 .209.047.417.142.623.094.207.22.403.38.588a3.208 3.208 0 0 0 1.245.874c.183-.135.35-.287.499-.454.149-.168.277-.34.384-.518.108-.177.19-.354.248-.529.057-.175.086-.338.086-.49 0-.256-.038-.484-.114-.682a1.424 1.424 0 0 0-.31-.498 1.287 1.287 0 0 0-.46-.302 1.561 1.561 0 0 0-.568-.102c-.236 0-.448.04-.637.122a1.5 1.5 0 0 0-.483.325 1.396 1.396 0 0 0-.306.474zm2.682 7.665c.073-.19.11-.391.11-.607 0-.2-.034-.406-.102-.619a2.177 2.177 0 0 0-.346-.642 3.636 3.636 0 0 0-.644-.642 5.722 5.722 0 0 0-.997-.619c-.23.179-.425.374-.585.587-.16.213-.29.427-.393.642a3.173 3.173 0 0 0-.223.62c-.048.196-.071.368-.071.516 0 .247.044.475.133.685a1.643 1.643 0 0 0 .923.903c.212.087.444.13.695.13.251 0 .476-.04.675-.122a1.454 1.454 0 0 0 .825-.832zm15.485-8.657l-9.29 10.741-1.044-.975 9.164-10.827zm-8.685 5.235c-.497 0-.934-.086-1.311-.26a2.877 2.877 0 0 1-.954-.69 2.901 2.901 0 0 1-.585-.99 3.353 3.353 0 0 1 .008-2.284c.136-.382.333-.726.593-1.032.259-.306.577-.556.954-.75.377-.193.808-.29 1.295-.29.487 0 .918.09 1.292.27.374.181.688.417.942.707s.447.619.577.985a3.246 3.246 0 0 1-.035 2.32c-.154.39-.368.734-.64 1.032-.272.299-.59.537-.954.715a2.655 2.655 0 0 1-1.182.267zm-1.029-3.859c-.03.2-.047.378-.047.535 0 .2.016.418.047.656.032.24.087.46.165.665.079.204.189.376.33.515a.741.741 0 0 0 .542.208.758.758 0 0 0 .49-.16c.134-.108.24-.246.319-.414a2.14 2.14 0 0 0 .169-.554 3.51 3.51 0 0 0 .05-.586c0-.21-.016-.435-.05-.676a2.912 2.912 0 0 0-.173-.668 1.49 1.49 0 0 0-.326-.511.692.692 0 0 0-.51-.205.732.732 0 0 0-.51.185 1.374 1.374 0 0 0-.327.448 2.12 2.12 0 0 0-.169.562zM60.728 0C71.355 0 80 8.656 80 19.297c0 7.804-4.65 14.54-11.323 17.578V76.57H0V8.755c.448-.746 1.098-.954 1.964-.954 14.43.014 28.859.015 43.288.01C48.767 3.074 54.396 0 60.728 0zM3.431 10.689c-.314-.001-.567.002-.564.442.015 2.371.004 4.743.026 7.114.002.168.162.389.312.493.804.557 1.636 1.074 2.444 1.626 1.029.704 1.993 1.518 3.076 2.121 1.661.926 4.812.029 5.052-2.603a7.566 7.566 0 0 0-.017-1.604c-.317-2.566-1.344-4.892-2.504-7.164-.102-.198-.427-.39-.654-.398-1.183-.04-2.367-.018-3.551-.018v-.007c-1.207 0-2.413.003-3.62-.002zm-.14 26.798c-.219.12-.401.52-.402.79-.022 6.507-.018 13.014-.015 19.52 0 .168.028.337.054.616.491-.542.89-1.019 1.326-1.458 2.583-2.6 5.205-5.161 7.753-7.795 1.923-1.987 3.548-4.201 4.421-6.873.667-2.04 1.018-4.122.483-6.255-.295-1.175-1.055-1.932-2.28-2.034-.812-.068-1.655-.055-2.455.085-3.176.557-6.083 1.86-8.885 3.404zM8.16 73.66c-.47-2.585-.165-5.03.524-7.44.955-3.346 2.598-6.358 4.54-9.215 3.16-4.65 6.884-8.857 10.443-13.194a89.88 89.88 0 0 0 4.098-5.383c1.107-1.578 1.135-3.304.2-5.005a67.122 67.122 0 0 0-1.626-2.772c-2.863-4.66-4.402-9.74-4.729-15.186-.093-1.556-.014-3.123-.014-4.72h-7.289l.365.862c.966 2.27 1.697 4.598 1.907 7.079.352 4.157-2.487 7.17-6.65 6.97-1.98-.096-3.615-1.045-5.125-2.249-.604-.48-1.205-.966-1.862-1.493V34.34c.93-.425 1.772-.833 2.632-1.198 2.83-1.202 5.704-2.191 8.86-1.964 3.176.229 5.346 2.433 5.555 5.629.309 4.749-1.115 8.96-4.166 12.522-2.22 2.59-4.772 4.892-7.116 7.38-1.836 1.948-3.602 3.966-5.345 5.999-.299.348-.455.925-.463 1.4-.044 2.617-.021 5.236-.021 7.854v1.699zm28.607-.01c.276-2.866-.4-10.282-1.127-11.484-1.948 3.664-2.795 7.56-3.808 11.483zm7.68-4.961c.122-3.548-.164-7.056-1.252-10.459-.96-3.004-2.509-5.612-5.12-7.5-1.097-.791-2.23-.847-3.404-.271-.496.243-.968.56-1.398.91-1.581 1.281-2.78 2.899-3.883 4.586-3.557 5.448-6.135 11.381-8.56 17.388-.036.09-.004.205-.004.346 2.575 0 5.12.009 7.666-.021.165-.002.421-.278.474-.47.306-1.118.538-2.256.844-3.373.754-2.756 1.498-5.525 2.988-7.996a7.925 7.925 0 0 1 1.732-2.006c.93-.762 2.109-.598 2.854.347.461.584.832 1.275 1.092 1.975.755 2.028.988 4.167 1.073 6.311.068 1.715.014 3.435.014 5.23 1.522 0 2.857.014 4.191-.023.131-.004.349-.314.365-.497.134-1.49.277-2.983.328-4.477zm7.47 4.447c.962-4.298 1.124-8.624.56-12.997-.545-4.216-1.76-8.177-4.299-11.62-2.508-3.4-5.128-6.716-7.706-10.063-2.074-2.694-4.137-5.394-5.48-8.558-1.022-2.408-1.252-4.82-.432-7.375.866-2.695 1.54-5.453 2.27-8.19.313-1.176.553-2.371.84-3.61H24.542c-.044.376-.102.706-.118 1.038-.268 5.69.886 11.06 3.608 16.077.915 1.686 1.955 3.313 2.751 5.053 1.051 2.296.895 4.623-.41 6.81-.559.94-1.156 1.869-1.843 2.715-3.1 3.82-6.258 7.595-9.358 11.415-2.483 3.06-4.81 6.231-6.488 9.825-1.393 2.984-2.225 6.076-1.708 9.416.071.461.213.648.713.637 1.496-.032 2.995-.008 4.492-.007 1.413 0 1.406-.003 1.933-1.302 2.43-5.993 5.133-11.85 8.74-17.242 1.572-2.35 3.288-4.59 5.592-6.286 2.824-2.077 5.353-2.228 8.134.143 2.384 2.033 3.974 4.574 5.007 7.488 1.556 4.388 1.909 8.938 1.689 13.551-.058 1.196-.17 2.388-.262 3.645 1.542 0 3.015.015 4.485-.025.148-.004.37-.33.417-.538zm13.884-.571c0-4.654-.035-9.309.022-13.962.017-1.413-.263-2.702-.927-3.917-.48-.882-.98-1.758-1.539-2.59-1.769-2.632-4.005-4.858-6.236-7.087-2.72-2.717-5.491-5.388-8.096-8.213-1.35-1.465-2.596-3.108-3.523-4.865a8.979 8.979 0 0 1-.704-1.788 19.205 19.205 0 0 1-3.341-10.847c0-3.09.73-6.01 2.024-8.602-.833.004-1.663.009-2.49.02-.162.001-.412.293-.465.492-1.123 4.2-2.208 8.411-3.337 12.61-.321 1.197-.388 2.361-.061 3.565.59 2.178 1.74 4.069 3.082 5.828 2.466 3.234 5.035 6.39 7.532 9.601 2.089 2.686 4.03 5.473 5.42 8.599 1.31 2.947 1.907 6.076 2.264 9.262a40.215 40.215 0 0 1-.384 11.621c-.08.446-.14.895-.213 1.366h10.972zM53.28 37.094a187.857 187.857 0 0 0 4.207 4.172c2.894 2.8 5.78 5.605 8.107 8.92.027.04.103.043.198.079 0-3.887.009-7.733-.023-11.58-.002-.214-.287-.501-.514-.63a19.225 19.225 0 0 1-4.527.539c-2.639 0-5.155-.534-7.448-1.5zm15.397-3.963c4.775-2.758 7.992-7.918 7.992-13.834 0-8.816-7.137-15.962-15.94-15.962A15.872 15.872 0 0 0 49.665 7.81a16.018 16.018 0 0 0-2.36 2.882 15.895 15.895 0 0 0-2.519 8.605 16.091 16.091 0 0 0 .342 3.294l.03.135c.05.226.103.451.162.673.014.053.03.105.045.158.06.215.122.43.19.641l.05.147c.072.215.147.429.227.64l.048.122c.086.22.176.437.271.651l.041.092a16.005 16.005 0 0 0 .719 1.405l.016.028c.135.233.276.463.422.689 2.722 4.2 7.358 7.037 12.674 7.269.234.01.468.018.704.018h.003a16.212 16.212 0 0 0 2.247-.161c.118-.017.236-.035.354-.055.086-.014.17-.03.256-.045.25-.046.497-.097.743-.154l.127-.029a15.776 15.776 0 0 0 2.817-.965h.002c.24-.11.476-.223.708-.343h.002c.234-.12.464-.246.69-.376z"/></g></g></g></svg>