<svg xmlns="http://www.w3.org/2000/svg" width="87" height="81" viewBox="0 0 87 81"><defs><clipPath id="y201a"><path d="M0 .64h86.91v80.207H0z"/></clipPath></defs><g><g><g><g><g/><g clip-path="url(#y201a)"><path fill="#e8261c" d="M6.322 77.856c2.259 0 4.518.003 6.777-.002.868-.001 1.539.3 1.746 1.199.233 1.014-.522 1.817-1.712 1.792-3.01-.065-6.02-.164-9.03-.254a91.221 91.221 0 0 1-2.62-.105c-1.061-.062-1.695-.823-1.418-1.827a898.29 898.29 0 0 1 3.213-11.303c.264-.907 1.049-1.302 1.885-1.058.781.228 1.196.996.942 1.95-.502 1.893-1.06 3.771-1.595 5.655-.095.336-.183.672-.334 1.227.409-.252.668-.391.905-.562 4.526-3.275 9.043-6.563 13.582-9.82.56-.401.767-.826.765-1.51-.024-7.655.005-15.31-.036-22.963-.006-1.247.425-2.012 1.524-2.627 6.71-3.75 13.384-7.563 20.09-11.32.711-.4.975-.832.969-1.652-.04-5.596-.02-11.192-.02-16.788V6.58c-.421.484-.652.73-.86.991-1.223 1.54-2.43 3.093-3.664 4.624-.666.827-1.481.962-2.198.422-.71-.536-.815-1.404-.18-2.213a913.099 913.099 0 0 1 7.153-9.016c.805-1 1.693-.998 2.505.009a945.108 945.108 0 0 1 7.157 9.012c.61.776.495 1.706-.2 2.22-.69.51-1.512.394-2.133-.373-1.24-1.527-2.446-3.08-3.667-4.622-.217-.273-.444-.539-.804-.976-.043.455-.089.718-.089.982-.003 5.757.013 11.513-.02 17.27-.005.699.278 1.022.835 1.336 6.724 3.79 13.426 7.618 20.166 11.38 1.135.634 1.588 1.412 1.58 2.695-.04 7.654-.014 15.308-.03 22.963-.002.595.133 1.003.648 1.374 4.642 3.335 9.263 6.7 13.893 10.05.17.124.37.207.719.398-.621-2.192-1.197-4.222-1.77-6.252-.07-.247-.154-.492-.195-.745-.151-.923.249-1.628 1.015-1.821.851-.215 1.575.181 1.855 1.114.664 2.214 1.29 4.44 1.924 6.663.422 1.482.85 2.963 1.235 4.455.3 1.158-.258 1.923-1.425 1.963-3.85.135-7.701.257-11.553.363-1.066.03-1.72-.502-1.787-1.36-.076-.965.58-1.593 1.722-1.63 1.974-.064 3.949-.117 5.923-.18.308-.009.616-.04 1.124-.074-.387-.32-.612-.527-.859-.706-4.418-3.204-8.848-6.391-13.247-9.62-.61-.448-1.034-.497-1.708-.112-6.673 3.814-13.38 7.57-20.047 11.392-1.093.626-1.98.605-3.057-.012-6.67-3.82-13.372-7.58-20.046-11.392-.632-.36-1.04-.334-1.624.094-4.4 3.227-8.829 6.417-13.247 9.62-.255.184-.496.387-.743.582l.066.408m56.577-38.453c-.323-.212-.452-.307-.59-.386-6.096-3.454-12.198-6.897-18.28-10.374-.542-.31-.889-.125-1.32.12-5.927 3.358-11.858 6.71-17.787 10.065-.264.15-.512.33-.877.567.416.248.71.432 1.012.6 1.127.632 2.274 1.23 3.38 1.895.77.463.956 1.292.546 2.006-.375.654-1.18.916-1.945.59-.414-.177-.796-.427-1.192-.644l-3.347-1.832c-.036.32-.068.476-.068.632-.003 6.913.01 13.826-.021 20.739-.003.668.368.882.823 1.139 5.902 3.337 11.803 6.677 17.706 10.014.286.162.592.291 1.017.499 0-3.183-.004-6.17.001-9.158.002-1.178.547-1.876 1.46-1.905.95-.03 1.55.7 1.553 1.916.006 2.669 0 5.337.004 8.006 0 .335.03.67.052 1.104.262-.115.41-.164.542-.239 6.127-3.465 12.247-6.942 18.387-10.384.555-.312.545-.715.544-1.2-.002-6.72 0-13.44-.004-20.16 0-.296-.04-.591-.07-1.017l-1.49.819c-.99.545-1.966 1.119-2.975 1.627-.796.401-1.622.147-2.029-.542-.402-.683-.23-1.452.459-1.954.233-.17.5-.295.753-.437 1.2-.674 2.402-1.347 3.756-2.106"/></g></g><g><path fill="#e8261c" d="M44.007 44.636c.006-1.43.7-2.065 2.25-2.075 1.32-.009 2.64-.021 3.961.004 2.65.05 4.716 1.93 4.75 4.402a414.9 414.9 0 0 1 .003 10.091c-.026 2.441-1.982 4.327-4.6 4.449-1.453.068-2.912.044-4.367.007-1.282-.031-1.979-.729-1.995-1.932-.017-1.269-.005-2.538-.005-3.807v-3.808c0-2.444-.008-4.887.003-7.33zm3.196 13.93c.997 0 1.935.023 2.87-.005 1.08-.033 1.764-.572 1.779-1.58.047-3.299.036-6.599.007-9.898-.007-.818-.519-1.437-1.394-1.52-1.062-.1-2.142-.024-3.262-.024z"/></g><g><path fill="#e8261c" d="M38.952 53.54c-1.093 0-2.017.012-2.942-.004-1.12-.02-1.793-.6-1.785-1.503.008-.904.673-1.44 1.82-1.454.762-.01 1.528.037 2.284-.029.223-.02.59-.33.597-.517.05-1.454.028-2.91.028-4.505-1.782 0-3.458.008-5.135-.002-1.08-.007-1.699-.453-1.804-1.26-.118-.91.465-1.663 1.449-1.682 2.285-.043 4.573-.05 6.858.004 1.04.024 1.648.764 1.66 1.892.026 2.32.014 4.64.015 6.961.001 2.607.007 5.214-.002 7.82-.006 1.719-.603 2.282-2.392 2.286-1.889.003-3.778.006-5.666-.004-1.293-.006-1.962-.55-1.933-1.539.028-.946.658-1.41 1.94-1.415 1.425-.005 2.85.024 4.274-.026.25-.01.693-.326.701-.514.059-1.453.033-2.909.033-4.51"/></g></g></g></g></svg>