<svg xmlns="http://www.w3.org/2000/svg" width="48" height="31" viewBox="0 0 48 31"><g><g><path fill="#e8261c" d="M48 13.232v.427c-.155.161-.287.355-.468.479-2.399 1.645-4.804 3.28-7.208 4.918-.053.036-.103.075-.176.13.426.411.849.8 1.25 1.21 1.478 1.517.896 4.031-1.103 4.782-.637.24-1.284.254-1.957.075-.146 1.039-.657 1.84-1.606 2.33-.954.493-1.92.447-2.873-.023-.019.042-.03.06-.034.077a2.976 2.976 0 0 1-3.61 2.21c-.373-.092-.598-.016-.894.174-1.268.812-2.648.938-4.095.563a.632.632 0 0 0-.282-.003c-.564.123-1.12.31-1.69.374-2.026.223-3.761-.372-5.122-1.894-.135-.15-.259-.175-.439-.154-1.43.171-2.8-.714-3.203-2.07-.063-.213-.1-.433-.152-.664-.938.202-1.8.043-2.564-.53-.768-.578-1.144-1.362-1.187-2.308-1.338.145-2.42-.277-3.098-1.411-.769-1.286-.533-2.51.444-3.621-.041-.037-.074-.068-.11-.097-2.26-1.836-4.523-3.667-6.778-5.51-.37-.3-.807-.538-1.045-.977v-.388c.065-.103.124-.21.195-.308 2.374-3.308 4.75-6.615 7.125-9.922.272-.38.589-.446 1.033-.277.637.242 1.28.472 1.93.677 1.206.38 2.389.335 3.566-.164.73-.309 1.487-.557 2.242-.804 1.308-.427 2.648-.64 4.03-.479a9.357 9.357 0 0 1 4.173 1.54c.13.086.22.082.352.008A9.363 9.363 0 0 1 28.604.437a8.708 8.708 0 0 1 3.941.649c.995.408 1.97.867 2.953 1.304.65.288 1.315.473 2.045.416a12.027 12.027 0 0 0 2.986-.616c.56-.193.833-.097 1.133.407L48 13.232M28.565 28.838c-.078-.055-.145-.088-.195-.138-.707-.688-1.411-1.38-2.116-2.07-.046-.046-.095-.09-.137-.14-.181-.218-.232-.464-.122-.725.11-.26.316-.41.604-.436.256-.024.456.084.633.258a730.95 730.95 0 0 0 2.52 2.47c.45.44.991.584 1.599.406 1.145-.337 1.488-1.73.632-2.576-1.362-1.345-2.733-2.681-4.1-4.021-.052-.05-.105-.1-.152-.153a.675.675 0 0 1-.14-.708c.091-.26.291-.414.564-.46.269-.046.486.064.674.249.726.715 1.455 1.427 2.183 2.14 1.06 1.038 2.115 2.08 3.18 3.113.817.79 2.115.565 2.575-.436.278-.607.14-1.26-.382-1.773l-6.314-6.188c-.056-.054-.114-.107-.164-.168a.696.696 0 0 1 .364-1.12c.311-.083.559.033.782.253 2.298 2.257 4.6 4.51 6.902 6.764.084.082.167.165.259.24.552.45 1.368.469 1.942.045.804-.594.845-1.663.09-2.403-4.125-4.043-8.252-8.084-12.373-12.13-.125-.122-.227-.137-.379-.072a3.868 3.868 0 0 0-1.33.958c-.718.783-1.412 1.589-2.111 2.389-.637.727-1.285 1.443-2.1 1.99-.835.56-1.741.817-2.752.582-.926-.216-1.505-.76-1.666-1.698-.127-.744-.004-1.468.195-2.182.498-1.784 1.35-3.412 2.32-4.985a13.648 13.648 0 0 1 2.692-3.185c.137-.118.276-.233.418-.353-.022-.024-.032-.04-.048-.05a7.914 7.914 0 0 0-3.385-1.088c-1.028-.089-2.028.065-2.998.381-.992.324-1.97.691-2.958 1.028-.695.238-1.408.4-2.152.328a11.827 11.827 0 0 1-3.207-.79c-.166-.066-.237-.027-.33.104-1.58 2.207-3.164 4.41-4.746 6.613L1.69 11.396l7.283 5.914c1.61-1.969 4.712-1.366 5.402 1.063.91-.914 1.99-1.273 3.24-.871 1.26.405 1.918 1.322 2.082 2.569.364-.011.73-.068 1.082-.026 1.79.218 2.943 1.789 2.618 3.524-.012.061.028.155.076.201.249.24.527.453.76.706.708.766.874 1.627.404 2.574-.141.285-.301.56-.442.844-.128.256-.114.353.097.551.386.361.825.644 1.34.796.539.159 1.09.184 1.644.092.443-.073.868-.203 1.29-.495m17.772-15.605l-5.692-9.54c-.76.15-1.485.305-2.216.436-1.186.212-2.333.095-3.433-.413a94.636 94.636 0 0 0-2.784-1.247c-1.633-.69-3.316-.838-5.042-.37-1.524.412-2.82 1.209-3.923 2.301-1.964 1.947-3.211 4.31-4.08 6.882-.173.51-.273 1.036-.24 1.58.026.445.158.606.593.723.358.097.705.063 1.045-.068a3.419 3.419 0 0 0 1.202-.8 36.474 36.474 0 0 0 1.48-1.588c.726-.828 1.399-1.702 2.234-2.433.58-.509 1.212-.934 1.988-1.109.406-.091.77-.1 1.11.233 3.45 3.393 6.91 6.775 10.367 10.161.054.054.088.127.133.193l7.258-4.941M17.369 27.515c.459 0 .813-.152 1.176-.508.976-.955 1.95-1.91 2.925-2.867.075-.073.147-.148.212-.23a1.516 1.516 0 0 0-.16-2.059 1.594 1.594 0 0 0-2.123-.033c-.133.115-.256.242-.382.365-.915.896-1.833 1.788-2.742 2.69-.493.49-.613 1.073-.353 1.711.235.577.807.932 1.447.931m-3.972-2.67c.65.012 1.026-.152 1.34-.456.324-.314.645-.631.966-.947.7-.687 1.406-1.368 2.098-2.063a1.51 1.51 0 0 0 .001-2.168 1.584 1.584 0 0 0-2.222-.01 249.204 249.204 0 0 0-3.093 3.037c-.48.481-.588 1.068-.317 1.685.263.602.761.902 1.227.923M8.5 20.576c.018.499.321.988.932 1.254.62.27 1.21.17 1.705-.283.497-.455.974-.93 1.443-1.414a1.517 1.517 0 0 0-.03-2.14 1.58 1.58 0 0 0-2.194-.03c-.486.458-.958.929-1.429 1.401-.29.29-.43.646-.427 1.212m10.818 7.667c1.149 1.292 2.946 1.545 4.004 1.263-.086-.1-.176-.193-.255-.295-.486-.628-.504-1.293-.151-1.982.139-.27.295-.532.431-.804.133-.263.167-.546-.015-.792-.185-.252-.412-.474-.624-.712l-3.39 3.322"/></g></g></svg>