<svg xmlns="http://www.w3.org/2000/svg" width="242" height="55" viewBox="0 0 242 55"><g><g><g><g><path fill="#e8261c" d="M45.5 29.8L14 36.6l10.7 7.1 24.4-11.5z"/></g><g><path fill="#e8261c" d="M10.6 20.9L.4 27.6l10.2 6.8 30.9-6.8z"/></g><g><path fill="#e8261c" d="M27.5 9.7l23.8 11.2 3.2-2.1L34.3 5.3z"/></g><g><path fill="#e8261c" d="M14 18.6l30.6 6.7 3.8-2.5-23.7-11.2z"/></g><g><path fill="#e8261c" d="M51.9 34.1L27.5 45.6l6.8 4.4L55 36.1z"/></g><g><path fill="#e8261c" d="M36.9 51.7l4.7 3.2 20.9-13.8-4.8-3.3z"/></g><g><path fill="#e8261c" d="M57.1 17.1l4.9-3.3L41.6.4l-4.7 3.1z"/></g></g><g><path d="M87.5 18.3l.1.1v17.1l-.1.1h-2.7l-.1-.1V21.2h-5.9L77 31.9c-.6 2.7-2.6 4.1-5.6 4.1l-.1-.2v-2.5l.1-.1c1.5 0 2.5-.7 2.9-2.4l1.9-12.5.2-.1h11.1z"/></g><g><path d="M102.3 18.3l.1.1v2.7l-.1.1h-8.2v3.7h6.1l.1.1v2.7l-.1.1h-6.1v5h8.7l.1.1v2.7l-.1.1H91.3l-.1-.1V18.4l.1-.1h11z"/></g><g><path d="M119.2 23.1c-1.6-1.4-3.6-2.1-5.8-2.1-3.3 0-5.9 2.7-5.9 6 0 3.4 2.6 6 5.9 6 2.2 0 4.2-.8 5.8-2.1l.1.1v3.3c-1.6 1.2-3.6 1.8-6 1.8-5.1 0-9.2-4.1-9.2-9.1s4.1-9.1 9.2-9.1c2.4 0 4.3.6 6 1.8V23z"/></g><g><path d="M135.3 18.3l.1.1v2.7l-.1.1h-5.4v14.4l-.1.1h-2.6l-.1-.1V21.2h-5.4l-.1-.1v-2.7l.1-.1h13.6z"/></g><g><path d="M140.8 18.3l.1.1v6.5h8.8v-6.5l.1-.1h2.7l.1.1v17.1l-.1.1h-2.7l-.1-.1v-7.8h-8.8v7.8l-.1.1h-2.6l-.1-.1V18.4l.1-.1h2.6z"/></g><g><path d="M159.6 18.3l.1.1v12.5l9.6-12.5.2-.1h2.8l.1.1v17.1l-.1.1h-2.7l-.1-.1V23.1L160 35.6l-.2.1H157l-.1-.1V18.4l.1-.1h2.6z"/></g><g><path d="M178.4 18.3l.1.1v14.4h8.3V18.4l.1-.1h2.7l.1.1v14.4h2.1l.1.1v4.4l-.1.1h-2.6l-.1-.1v-1.6h-13.3l-.1-.1V18.4l.1-.1h2.6z"/></g><g><path d="M202.2 22.2l2.5 6.7h-5zm1.4-3.9h-2.8l-.1.1-6.8 17.1.1.1h3.1l.1-.1 1.5-3.8h7.1l1.4 3.8.1.1h3.1l.1-.1-6.8-17.1z"/></g><g><g><path fill="#ae2824" d="M218.4 22.9h-1.2v-2.7h1.2c.8 0 1.2.5 1.2 1.3 0 .7-.4 1.3-1.2 1.3zm-3.5 5h2.4v-3h1.7c1.9 0 3.2-1.4 3.2-3.4s-1.3-3.4-3.2-3.4h-4.1z"/></g><g><path fill="#ae2824" d="M226.9 22.6h-1.1v-2.4h.8c.4 0 .7 0 .9.1.5.1.6.5.6 1 0 .8-.4 1.2-1.2 1.2zm-3.4-4.5v9.7h2.4v-3.3h1.1l1.7 3.3h2.7l-1.9-3.4c-.3-.4-.4-.6-.4-.6 1-.5 1.5-1.7 1.5-2.7 0-1.4-.7-2.4-1.8-2.8-.4-.1-.9-.2-1.9-.2z"/></g><g><path fill="#ae2824" d="M234.3 22.9c0-1.6 1.1-2.8 2.6-2.8s2.6 1.2 2.6 2.8c0 1.6-1.1 2.9-2.6 2.9s-2.6-1.2-2.6-2.9zm-2.5 0c0 2.9 2.1 5.1 5.1 5.1 3 0 5.1-2.2 5.1-5.1 0-2.8-2.1-5-5.1-5-3 0-5.1 2.2-5.1 5z"/></g></g></g></g></svg>